<?xml version="1.0" encoding="UTF-8"?>
<svg version="1.1" xmlns="http://www.w3.org/2000/svg" width="403" height="483">
<path d="M0 0 C1.17940131 0.00334608 1.17940131 0.00334608 2.38262892 0.00675976 C3.21173891 0.00519977 4.04084889 0.00363978 4.89508343 0.00203252 C7.69502674 -0.00198101 10.49491657 0.00121352 13.29486036 0.00434887 C15.29336024 0.00299499 17.29185987 0.00121513 19.29035902 -0.00096118 C24.73441439 -0.00553704 30.1784509 -0.00374533 35.62250662 -0.0005821 C41.3062198 0.00194072 46.9899313 -0.00039582 52.67364454 -0.00196826 C62.22040044 -0.00379019 71.76714861 -0.00138305 81.31390333 0.00337231 C92.36848316 0.00881497 103.42304456 0.00705233 114.47762394 0.00154591 C123.95019438 -0.00298457 133.42275925 -0.00363609 142.89533043 -0.00101542 C148.56105715 0.00054771 154.22677519 0.00074012 159.89250135 -0.00255191 C165.21772012 -0.00542968 170.54291499 -0.00345668 175.86813116 0.00234234 C177.82858125 0.00367045 179.78903333 0.00327497 181.74948263 0.00107968 C184.4137654 -0.00162985 187.07797032 0.00174686 189.74224806 0.00675976 C190.5285156 0.00452904 191.31478314 0.00229832 192.12487698 0 C197.44828865 0.01959357 197.44828865 0.01959357 198.56243849 1.13374341 C200.420196 1.19087262 202.27822504 1.24344632 204.13665724 1.27095044 C213.00248108 1.46474922 219.20999592 2.85506669 226.56243849 8.13374341 C227.40806349 8.73186841 228.25368849 9.32999341 229.12493849 9.94624341 C232.8257714 12.6981448 236.01816455 15.23782393 238.56243849 19.13374341 C238.56243849 19.79374341 238.56243849 20.45374341 238.56243849 21.13374341 C239.42868849 21.50499341 239.42868849 21.50499341 240.31243849 21.88374341 C242.89183828 23.31674329 244.62365441 24.91799017 246.56243849 27.13374341 C246.56243849 27.79374341 246.56243849 28.45374341 246.56243849 29.13374341 C247.22243849 29.13374341 247.88243849 29.13374341 248.56243849 29.13374341 C248.56243849 29.79374341 248.56243849 30.45374341 248.56243849 31.13374341 C249.22243849 31.13374341 249.88243849 31.13374341 250.56243849 31.13374341 C250.56243849 31.79374341 250.56243849 32.45374341 250.56243849 33.13374341 C251.22243849 33.13374341 251.88243849 33.13374341 252.56243849 33.13374341 C252.56243849 33.79374341 252.56243849 34.45374341 252.56243849 35.13374341 C253.22243849 35.13374341 253.88243849 35.13374341 254.56243849 35.13374341 C254.56243849 35.79374341 254.56243849 36.45374341 254.56243849 37.13374341 C255.22243849 37.13374341 255.88243849 37.13374341 256.56243849 37.13374341 C261.56243849 42.60993388 261.56243849 42.60993388 261.56243849 45.13374341 C262.22243849 45.13374341 262.88243849 45.13374341 263.56243849 45.13374341 C263.56243849 45.79374341 263.56243849 46.45374341 263.56243849 47.13374341 C264.22243849 47.13374341 264.88243849 47.13374341 265.56243849 47.13374341 C265.56243849 47.79374341 265.56243849 48.45374341 265.56243849 49.13374341 C266.22243849 49.13374341 266.88243849 49.13374341 267.56243849 49.13374341 C267.56243849 49.79374341 267.56243849 50.45374341 267.56243849 51.13374341 C268.22243849 51.13374341 268.88243849 51.13374341 269.56243849 51.13374341 C269.56243849 51.79374341 269.56243849 52.45374341 269.56243849 53.13374341 C270.22243849 53.13374341 270.88243849 53.13374341 271.56243849 53.13374341 C271.56243849 53.79374341 271.56243849 54.45374341 271.56243849 55.13374341 C272.22243849 55.13374341 272.88243849 55.13374341 273.56243849 55.13374341 C273.56243849 55.79374341 273.56243849 56.45374341 273.56243849 57.13374341 C274.22243849 57.13374341 274.88243849 57.13374341 275.56243849 57.13374341 C275.56243849 57.79374341 275.56243849 58.45374341 275.56243849 59.13374341 C276.22243849 59.13374341 276.88243849 59.13374341 277.56243849 59.13374341 C277.56243849 59.79374341 277.56243849 60.45374341 277.56243849 61.13374341 C278.22243849 61.13374341 278.88243849 61.13374341 279.56243849 61.13374341 C279.56243849 61.79374341 279.56243849 62.45374341 279.56243849 63.13374341 C280.22243849 63.13374341 280.88243849 63.13374341 281.56243849 63.13374341 C285.56243849 67.60433164 285.56243849 67.60433164 285.56243849 70.13374341 C286.22243849 70.13374341 286.88243849 70.13374341 287.56243849 70.13374341 C287.56243849 70.79374341 287.56243849 71.45374341 287.56243849 72.13374341 C288.22243849 72.13374341 288.88243849 72.13374341 289.56243849 72.13374341 C289.56243849 72.79374341 289.56243849 73.45374341 289.56243849 74.13374341 C290.22243849 74.13374341 290.88243849 74.13374341 291.56243849 74.13374341 C291.56243849 74.79374341 291.56243849 75.45374341 291.56243849 76.13374341 C292.22243849 76.13374341 292.88243849 76.13374341 293.56243849 76.13374341 C293.56243849 76.79374341 293.56243849 77.45374341 293.56243849 78.13374341 C294.22243849 78.13374341 294.88243849 78.13374341 295.56243849 78.13374341 C295.56243849 78.79374341 295.56243849 79.45374341 295.56243849 80.13374341 C296.22243849 80.13374341 296.88243849 80.13374341 297.56243849 80.13374341 C297.56243849 80.79374341 297.56243849 81.45374341 297.56243849 82.13374341 C298.22243849 82.13374341 298.88243849 82.13374341 299.56243849 82.13374341 C299.56243849 82.79374341 299.56243849 83.45374341 299.56243849 84.13374341 C300.22243849 84.13374341 300.88243849 84.13374341 301.56243849 84.13374341 C301.56243849 84.79374341 301.56243849 85.45374341 301.56243849 86.13374341 C302.22243849 86.13374341 302.88243849 86.13374341 303.56243849 86.13374341 C303.56243849 86.79374341 303.56243849 87.45374341 303.56243849 88.13374341 C304.22243849 88.13374341 304.88243849 88.13374341 305.56243849 88.13374341 C310.56243849 93.60993388 310.56243849 93.60993388 310.56243849 96.13374341 C311.22243849 96.13374341 311.88243849 96.13374341 312.56243849 96.13374341 C312.56243849 96.79374341 312.56243849 97.45374341 312.56243849 98.13374341 C313.22243849 98.13374341 313.88243849 98.13374341 314.56243849 98.13374341 C314.56243849 98.79374341 314.56243849 99.45374341 314.56243849 100.13374341 C315.22243849 100.13374341 315.88243849 100.13374341 316.56243849 100.13374341 C316.56243849 100.79374341 316.56243849 101.45374341 316.56243849 102.13374341 C317.22243849 102.13374341 317.88243849 102.13374341 318.56243849 102.13374341 C318.56243849 102.79374341 318.56243849 103.45374341 318.56243849 104.13374341 C319.22243849 104.13374341 319.88243849 104.13374341 320.56243849 104.13374341 C322.25384474 105.77827466 322.25384474 105.77827466 324.12493849 107.94624341 C324.74497755 108.65393872 325.36501661 109.36163403 326.00384474 110.09077466 C327.56243849 112.13374341 327.56243849 112.13374341 328.56243849 115.13374341 C329.22243849 115.13374341 329.88243849 115.13374341 330.56243849 115.13374341 C330.56243849 115.79374341 330.56243849 116.45374341 330.56243849 117.13374341 C331.22243849 117.13374341 331.88243849 117.13374341 332.56243849 117.13374341 C332.56243849 117.79374341 332.56243849 118.45374341 332.56243849 119.13374341 C333.22243849 119.13374341 333.88243849 119.13374341 334.56243849 119.13374341 C334.56243849 119.79374341 334.56243849 120.45374341 334.56243849 121.13374341 C335.22243849 121.13374341 335.88243849 121.13374341 336.56243849 121.13374341 C336.56243849 121.79374341 336.56243849 122.45374341 336.56243849 123.13374341 C337.22243849 123.13374341 337.88243849 123.13374341 338.56243849 123.13374341 C344.0802758 128.69071136 345.26334972 134.30538524 345.36956102 141.91215521 C345.35685881 143.16702233 345.3441566 144.42188944 345.33106947 145.71478283 C345.33870931 147.0807488 345.34895744 148.44670222 345.36157101 149.81263131 C345.38845367 153.54720543 345.378153 157.28087401 345.36144555 161.01547313 C345.34989929 165.05038166 345.37292993 169.08511768 345.39140272 173.11997998 C345.42190191 181.01702365 345.41989896 188.91373676 345.40595189 196.81081455 C345.39512493 203.23073969 345.3956668 209.65056986 345.4042716 216.07049763 C345.40547972 216.98503556 345.40668784 217.8995735 345.40793258 218.8418247 C345.41042329 220.69984061 345.41293428 222.55785649 345.41546532 224.41587234 C345.43773563 241.83003071 345.42248183 259.24400417 345.39487901 276.65814478 C345.37216322 291.59064672 345.38383859 306.5228059 345.4201045 321.45527661 C345.46224047 338.80656614 345.48133878 356.15764321 345.46507996 373.50898331 C345.46342036 375.36037998 345.46179701 377.21177668 345.46021032 379.06317341 C345.45942538 379.9740319 345.45864044 380.88489039 345.45783171 381.82335065 C345.453945 388.23285654 345.46664362 394.64220575 345.48594046 401.05167973 C345.50909543 408.86680505 345.50740095 416.6814531 345.47402731 424.4965493 C345.45765178 428.48183498 345.45235921 432.46629363 345.47762632 436.45155156 C345.5004736 440.10438996 345.49065133 443.75567127 345.45545443 447.40839816 C345.44502324 449.34614265 345.46877137 451.28397961 345.49398023 453.22158819 C345.34953675 462.78177679 342.25784368 467.94404114 335.96041566 474.90441519 C334.56243849 476.13374341 334.56243849 476.13374341 332.56243849 476.13374341 C332.56243849 476.79374341 332.56243849 477.45374341 332.56243849 478.13374341 C327.43398705 483.26290777 321.64830999 483.72643291 314.71304727 483.80246043 C313.42550396 483.79130682 312.13796066 483.78015321 310.81140089 483.76866162 C309.41473112 483.77442843 308.01806894 483.78237331 306.62142253 483.79229784 C302.79732316 483.81311921 298.97384982 483.8028778 295.14974856 483.78736675 C291.02006249 483.77603725 286.89048283 483.79352414 282.760818 483.80726635 C274.67516182 483.82948864 266.58973783 483.82470141 258.50407258 483.81020315 C251.92968986 483.79890381 245.35537214 483.79738303 238.78098249 483.80282223 C237.3765342 483.80397148 237.3765342 483.80397148 235.9437132 483.80514394 C234.04149123 483.80674261 232.13926928 483.80836368 230.23704734 483.8100069 C212.40223085 483.82426226 194.56754288 483.80787665 176.73274747 483.78100507 C161.44332872 483.75868112 146.15409987 483.7625346 130.86468458 483.78559887 C113.09919445 483.8123859 95.33381706 483.82287358 77.56830955 483.80753756 C75.67192556 483.80594487 73.77554156 483.80437301 71.87915754 483.80282223 C70.94617261 483.80205085 70.01318768 483.80127948 69.05193047 483.80048472 C62.49062434 483.79617534 55.92938994 483.80343816 49.36809492 483.81522 C41.36423571 483.82927645 33.36062153 483.82537978 25.35679021 483.79881628 C21.27622401 483.78571796 17.19606559 483.78045686 13.11550283 483.79706204 C9.37335484 483.81205909 5.63198911 483.80361508 1.8899112 483.77717428 C-0.09112591 483.76902156 -2.07221815 483.78518004 -4.05319667 483.80246043 C-15.71263474 483.67575554 -26.49584465 479.83355515 -35.43756151 472.13374341 C-35.43756151 471.47374341 -35.43756151 470.81374341 -35.43756151 470.13374341 C-36.09756151 470.13374341 -36.75756151 470.13374341 -37.43756151 470.13374341 C-37.43756151 469.47374341 -37.43756151 468.81374341 -37.43756151 468.13374341 C-38.09756151 468.13374341 -38.75756151 468.13374341 -39.43756151 468.13374341 C-39.43756151 467.47374341 -39.43756151 466.81374341 -39.43756151 466.13374341 C-40.09756151 466.13374341 -40.75756151 466.13374341 -41.43756151 466.13374341 C-41.43756151 465.47374341 -41.43756151 464.81374341 -41.43756151 464.13374341 C-42.09756151 464.13374341 -42.75756151 464.13374341 -43.43756151 464.13374341 C-43.43756151 463.47374341 -43.43756151 462.81374341 -43.43756151 462.13374341 C-44.09756151 462.13374341 -44.75756151 462.13374341 -45.43756151 462.13374341 C-47.20709276 459.78218091 -47.20709276 459.78218091 -49.25006151 456.50874341 C-50.24972948 454.94253247 -50.24972948 454.94253247 -51.26959276 453.34468091 C-57.52301418 441.92264364 -59.171237 431.42517954 -59.05902147 418.55297863 C-59.06335988 416.92213175 -59.06988435 415.2912895 -59.07838154 413.66045898 C-59.09525288 409.21704527 -59.08127666 404.7742014 -59.06186676 400.33081818 C-59.04636007 395.52441846 -59.05986191 390.71808499 -59.06961107 385.91168225 C-59.08409808 376.51238085 -59.07194462 367.11329631 -59.05049783 357.71401551 C-59.02642973 346.76223163 -59.02820567 335.81049683 -59.03080374 324.85869239 C-59.03448944 305.3180883 -59.01370451 285.77758612 -58.9795537 266.23701489 C-58.9464425 247.28418923 -58.93229977 228.33147045 -58.93853807 209.37861645 C-58.94530361 188.72244037 -58.94283892 168.06630898 -58.92317867 147.4101395 C-58.92213919 146.31775356 -58.9210997 145.22536761 -58.92002872 144.09987906 C-58.91793787 141.90604671 -58.9158269 139.71221438 -58.91369554 137.51838207 C-58.90680465 129.88711555 -58.90612982 122.25586283 -58.90757799 114.62459385 C-58.90901831 105.32674836 -58.89931496 96.02898992 -58.87563163 86.7311733 C-58.86378105 81.9887763 -58.85664035 77.24650057 -58.8624692 72.50408947 C-58.86764938 68.16113466 -58.85892335 63.81843582 -58.8391946 59.47552476 C-58.83446384 57.90648695 -58.8347433 56.33742414 -58.84060496 54.76839014 C-58.89066863 39.93132873 -55.80391802 29.89373493 -46.12506151 18.38374341 C-44.79474901 17.26999341 -44.79474901 17.26999341 -43.43756151 16.13374341 C-42.81107714 15.60522778 -42.18459276 15.07671216 -41.53912401 14.53218091 C-36.21138294 10.40454533 -30.59930218 7.72281233 -24.37506151 5.25874341 C-23.25998217 4.81135815 -23.25998217 4.81135815 -22.12237597 4.35493481 C-17.46490692 2.596027 -13.15813419 1.69474707 -8.18975878 1.34028637 C-5.36714088 1.00756591 -3.22330811 0.01186384 0 0 Z " fill="#FAFBFC" transform="translate(58.43756151199341,-0.13374340534210205)"/>
<path d="M0 0 C1.17940131 0.00334608 1.17940131 0.00334608 2.38262892 0.00675976 C3.21173891 0.00519977 4.04084889 0.00363978 4.89508343 0.00203252 C7.69502674 -0.00198101 10.49491657 0.00121352 13.29486036 0.00434887 C15.29336024 0.00299499 17.29185987 0.00121513 19.29035902 -0.00096118 C24.73441439 -0.00553704 30.1784509 -0.00374533 35.62250662 -0.0005821 C41.3062198 0.00194072 46.9899313 -0.00039582 52.67364454 -0.00196826 C62.22040044 -0.00379019 71.76714861 -0.00138305 81.31390333 0.00337231 C92.36848316 0.00881497 103.42304456 0.00705233 114.47762394 0.00154591 C123.95019438 -0.00298457 133.42275925 -0.00363609 142.89533043 -0.00101542 C148.56105715 0.00054771 154.22677519 0.00074012 159.89250135 -0.00255191 C165.21772012 -0.00542968 170.54291499 -0.00345668 175.86813116 0.00234234 C177.82858125 0.00367045 179.78903333 0.00327497 181.74948263 0.00107968 C184.4137654 -0.00162985 187.07797032 0.00174686 189.74224806 0.00675976 C190.5285156 0.00452904 191.31478314 0.00229832 192.12487698 0 C197.44828865 0.01959357 197.44828865 0.01959357 198.56243849 1.13374341 C200.420196 1.19087262 202.27822504 1.24344632 204.13665724 1.27095044 C213.00248108 1.46474922 219.20999592 2.85506669 226.56243849 8.13374341 C227.40806349 8.73186841 228.25368849 9.32999341 229.12493849 9.94624341 C232.8257714 12.6981448 236.01816455 15.23782393 238.56243849 19.13374341 C238.56243849 19.79374341 238.56243849 20.45374341 238.56243849 21.13374341 C239.42868849 21.50499341 239.42868849 21.50499341 240.31243849 21.88374341 C242.89183828 23.31674329 244.62365441 24.91799017 246.56243849 27.13374341 C246.56243849 27.79374341 246.56243849 28.45374341 246.56243849 29.13374341 C247.22243849 29.13374341 247.88243849 29.13374341 248.56243849 29.13374341 C248.56243849 29.79374341 248.56243849 30.45374341 248.56243849 31.13374341 C249.22243849 31.13374341 249.88243849 31.13374341 250.56243849 31.13374341 C250.56243849 31.79374341 250.56243849 32.45374341 250.56243849 33.13374341 C251.22243849 33.13374341 251.88243849 33.13374341 252.56243849 33.13374341 C252.56243849 33.79374341 252.56243849 34.45374341 252.56243849 35.13374341 C253.22243849 35.13374341 253.88243849 35.13374341 254.56243849 35.13374341 C254.56243849 35.79374341 254.56243849 36.45374341 254.56243849 37.13374341 C255.22243849 37.13374341 255.88243849 37.13374341 256.56243849 37.13374341 C261.56243849 42.60993388 261.56243849 42.60993388 261.56243849 45.13374341 C262.22243849 45.13374341 262.88243849 45.13374341 263.56243849 45.13374341 C263.56243849 45.79374341 263.56243849 46.45374341 263.56243849 47.13374341 C264.22243849 47.13374341 264.88243849 47.13374341 265.56243849 47.13374341 C265.56243849 47.79374341 265.56243849 48.45374341 265.56243849 49.13374341 C266.22243849 49.13374341 266.88243849 49.13374341 267.56243849 49.13374341 C267.56243849 49.79374341 267.56243849 50.45374341 267.56243849 51.13374341 C268.22243849 51.13374341 268.88243849 51.13374341 269.56243849 51.13374341 C269.56243849 51.79374341 269.56243849 52.45374341 269.56243849 53.13374341 C270.22243849 53.13374341 270.88243849 53.13374341 271.56243849 53.13374341 C271.56243849 53.79374341 271.56243849 54.45374341 271.56243849 55.13374341 C272.22243849 55.13374341 272.88243849 55.13374341 273.56243849 55.13374341 C273.56243849 55.79374341 273.56243849 56.45374341 273.56243849 57.13374341 C274.22243849 57.13374341 274.88243849 57.13374341 275.56243849 57.13374341 C275.56243849 57.79374341 275.56243849 58.45374341 275.56243849 59.13374341 C276.22243849 59.13374341 276.88243849 59.13374341 277.56243849 59.13374341 C277.56243849 59.79374341 277.56243849 60.45374341 277.56243849 61.13374341 C278.22243849 61.13374341 278.88243849 61.13374341 279.56243849 61.13374341 C279.56243849 61.79374341 279.56243849 62.45374341 279.56243849 63.13374341 C280.22243849 63.13374341 280.88243849 63.13374341 281.56243849 63.13374341 C285.56243849 67.60433164 285.56243849 67.60433164 285.56243849 70.13374341 C286.22243849 70.13374341 286.88243849 70.13374341 287.56243849 70.13374341 C287.56243849 70.79374341 287.56243849 71.45374341 287.56243849 72.13374341 C288.22243849 72.13374341 288.88243849 72.13374341 289.56243849 72.13374341 C289.56243849 72.79374341 289.56243849 73.45374341 289.56243849 74.13374341 C290.22243849 74.13374341 290.88243849 74.13374341 291.56243849 74.13374341 C291.56243849 74.79374341 291.56243849 75.45374341 291.56243849 76.13374341 C292.22243849 76.13374341 292.88243849 76.13374341 293.56243849 76.13374341 C293.56243849 76.79374341 293.56243849 77.45374341 293.56243849 78.13374341 C294.22243849 78.13374341 294.88243849 78.13374341 295.56243849 78.13374341 C295.56243849 78.79374341 295.56243849 79.45374341 295.56243849 80.13374341 C296.22243849 80.13374341 296.88243849 80.13374341 297.56243849 80.13374341 C297.56243849 80.79374341 297.56243849 81.45374341 297.56243849 82.13374341 C298.22243849 82.13374341 298.88243849 82.13374341 299.56243849 82.13374341 C299.56243849 82.79374341 299.56243849 83.45374341 299.56243849 84.13374341 C300.22243849 84.13374341 300.88243849 84.13374341 301.56243849 84.13374341 C301.56243849 84.79374341 301.56243849 85.45374341 301.56243849 86.13374341 C302.22243849 86.13374341 302.88243849 86.13374341 303.56243849 86.13374341 C303.56243849 86.79374341 303.56243849 87.45374341 303.56243849 88.13374341 C304.22243849 88.13374341 304.88243849 88.13374341 305.56243849 88.13374341 C310.56243849 93.60993388 310.56243849 93.60993388 310.56243849 96.13374341 C311.22243849 96.13374341 311.88243849 96.13374341 312.56243849 96.13374341 C312.56243849 96.79374341 312.56243849 97.45374341 312.56243849 98.13374341 C313.22243849 98.13374341 313.88243849 98.13374341 314.56243849 98.13374341 C314.56243849 98.79374341 314.56243849 99.45374341 314.56243849 100.13374341 C315.22243849 100.13374341 315.88243849 100.13374341 316.56243849 100.13374341 C316.56243849 100.79374341 316.56243849 101.45374341 316.56243849 102.13374341 C317.22243849 102.13374341 317.88243849 102.13374341 318.56243849 102.13374341 C318.56243849 102.79374341 318.56243849 103.45374341 318.56243849 104.13374341 C319.22243849 104.13374341 319.88243849 104.13374341 320.56243849 104.13374341 C322.25384474 105.77827466 322.25384474 105.77827466 324.12493849 107.94624341 C324.74497755 108.65393872 325.36501661 109.36163403 326.00384474 110.09077466 C327.56243849 112.13374341 327.56243849 112.13374341 328.56243849 115.13374341 C329.22243849 115.13374341 329.88243849 115.13374341 330.56243849 115.13374341 C330.56243849 115.79374341 330.56243849 116.45374341 330.56243849 117.13374341 C331.22243849 117.13374341 331.88243849 117.13374341 332.56243849 117.13374341 C332.56243849 117.79374341 332.56243849 118.45374341 332.56243849 119.13374341 C333.22243849 119.13374341 333.88243849 119.13374341 334.56243849 119.13374341 C334.56243849 119.79374341 334.56243849 120.45374341 334.56243849 121.13374341 C335.22243849 121.13374341 335.88243849 121.13374341 336.56243849 121.13374341 C336.56243849 121.79374341 336.56243849 122.45374341 336.56243849 123.13374341 C337.22243849 123.13374341 337.88243849 123.13374341 338.56243849 123.13374341 C340.07025099 124.92671216 340.07025099 124.92671216 341.68743849 127.32124341 C342.22626661 128.09854809 342.76509474 128.87585278 343.32025099 129.67671216 C344.6994878 132.40482521 344.80868556 134.1198934 344.56243849 137.13374341 C343.81993849 136.51499341 343.07743849 135.89624341 342.31243849 135.25874341 C337.11225381 131.24041888 333.31163088 130.84609743 326.78997755 130.87837231 C325.90491529 130.87475186 325.01985304 130.87113141 324.10797071 130.86740124 C322.18732944 130.86051197 320.26666861 130.85800093 318.34601545 130.85934842 C315.30211632 130.86031414 312.25856987 130.84736488 309.2147212 130.83036816 C300.56079817 130.78411627 291.90691054 130.75949978 283.25286818 130.75288403 C277.95723061 130.74785962 272.66196008 130.72356009 267.36644697 130.68755734 C265.3523347 130.67777877 263.3381718 130.67541675 261.3240428 130.68072903 C258.49979112 130.68782699 255.67662662 130.67046041 252.85247755 130.64790356 C252.02725599 130.65607602 251.20203444 130.66424847 250.35180616 130.67266858 C243.63801855 130.57771044 238.43629734 128.64646247 233.35540724 124.20405591 C232.82560255 123.56210278 232.29579786 122.92014966 231.74993849 122.25874341 C231.20724318 121.62194653 230.66454786 120.98514966 230.10540724 120.32905591 C226.41705974 115.08133111 225.18895645 111.08723519 225.22186232 104.65962231 C225.22142424 103.93698193 225.22098616 103.21434155 225.2205348 102.46980298 C225.22261189 100.09968829 225.24589071 97.73029583 225.26946974 95.36030591 C225.27506956 93.70978697 225.27933783 92.05926302 225.2823329 90.4087373 C225.29375132 86.07840562 225.32319236 81.74837895 225.35644484 77.41816723 C225.38721071 72.99397417 225.40085213 68.56973151 225.41595411 64.14546216 C225.4480652 55.47474975 225.49922485 46.80428459 225.56243849 38.13374341 C198.59795116 38.14755336 171.63363787 38.18979974 144.66925097 38.26583397 C132.14900788 38.30047668 119.62887481 38.32583857 107.10858107 38.32930005 C96.19499336 38.33234092 85.28160163 38.3528482 74.36808962 38.39426798 C68.59023377 38.4155882 62.81265648 38.42820344 57.03476095 38.4198972 C51.59358743 38.41235113 46.15297805 38.4282032 40.71190786 38.46180356 C38.71774664 38.47003 36.72352924 38.46979485 34.72937346 38.46034062 C19.2900716 38.27554647 19.2900716 38.27554647 6.44134474 46.12593091 C5.78972364 47.05792309 5.78972364 47.05792309 5.12493849 48.00874341 C4.44624708 48.93300122 4.44624708 48.93300122 3.75384474 49.87593091 C0.35312434 56.32057482 0.25295687 62.63365525 0.22099257 69.76538098 C0.20870023 70.82461878 0.19640789 71.88385657 0.18374306 72.97519249 C0.14537867 76.51849768 0.12122751 80.06174863 0.0973506 83.60517895 C0.07335378 86.14829111 0.04870472 88.69139719 0.02345228 91.23449719 C-0.05471093 99.57972632 -0.11044756 107.92502063 -0.16021776 116.27046216 C-0.16664148 117.33603425 -0.16664148 117.33603425 -0.17319497 118.42313305 C-0.25782469 132.54411158 -0.32995616 146.66513969 -0.37900686 160.78628838 C-0.38996403 163.88640101 -0.40109422 166.98651294 -0.41241503 170.08662426 C-0.41521868 170.85707787 -0.41802233 171.62753147 -0.42091095 172.42133216 C-0.46797838 184.9002453 -0.57386268 197.3779609 -0.70312447 209.85626449 C-0.8349082 222.68442848 -0.90965496 235.51197451 -0.9302296 248.34080547 C-0.94327415 255.53744881 -0.98152094 262.73203258 -1.08464289 269.92799962 C-1.18161286 276.69978241 -1.20181065 283.46752534 -1.17076349 290.24012959 C-1.17169448 292.72019555 -1.1981745 295.2004086 -1.25256014 297.67987835 C-2.02219965 311.39559992 -2.02219965 311.39559992 3.78753805 323.16799366 C6.8497329 325.85647913 10.1165397 327.9988212 13.65508616 330.00528026 C16.69720024 331.80511219 19.36316126 333.99351359 22.12493849 336.19624341 C23.18823847 337.01369972 24.25313458 337.8290879 25.32025099 338.64155591 C31.11228065 343.08152515 36.83049571 347.61669719 42.56243849 352.13374341 C50.21061669 358.15770578 57.87452026 364.1605483 65.56243849 370.13374341 C74.48912803 377.06941268 83.38134826 384.04794253 92.25775099 391.04780591 C92.8736006 391.53289624 93.48945021 392.01798657 94.12396193 392.51777661 C95.28150113 393.42956469 96.43846218 394.34208755 97.59466505 395.25556958 C98.64694703 396.0842019 99.70568058 396.90472716 100.77162504 397.71570885 C102.56243849 399.13374341 102.56243849 399.13374341 104.21631956 400.67518342 C110.06349111 405.78684833 115.04873089 405.97482783 122.6063838 405.8590852 C124.38340178 405.86780148 124.38340178 405.86780148 126.1963191 405.87669384 C129.42379131 405.88725975 132.64987441 405.87171313 135.877213 405.84524143 C139.26264114 405.82459396 142.64788555 405.8403738 146.03332472 405.85293591 C152.4387218 405.87176663 158.84372138 405.86283011 165.24909997 405.84161466 C176.7292171 405.80383411 188.20928075 405.79975816 199.68942666 405.82646698 C203.05644785 405.8332278 206.42314924 405.83233467 209.79013777 405.81474888 C213.53888289 405.79615492 217.28728919 405.79482203 221.0360713 405.7965852 C222.14991194 405.78572384 223.26375257 405.77486248 224.41134596 405.76367199 C225.43181013 405.76753918 226.4522743 405.77140637 227.50366163 405.77539074 C228.38925386 405.7722068 229.2748461 405.76902285 230.18727446 405.76574242 C233.09287934 406.21592836 234.46603516 407.09377837 236.56243849 409.13374341 C236.99993849 412.13374341 236.99993849 412.13374341 236.56243849 415.13374341 C234.99823338 417.21174323 234.12000015 418.03208293 231.53785372 418.50288689 C230.75893865 418.50012151 229.98002357 418.49735613 229.17750502 418.49450696 C228.28148069 418.49863095 227.38545637 418.50275494 226.4622798 418.5070039 C225.48188734 418.49621808 224.50149488 418.48543225 223.49139357 418.47431958 C222.45707701 418.47475766 221.42276045 418.47519574 220.35710096 418.47564709 C216.93186646 418.47355391 213.50711894 418.45019743 210.08196974 418.42671216 C207.70971395 418.4211181 205.33745471 418.4168471 202.96519423 418.413849 C196.71632296 418.40238532 190.46766033 418.37290483 184.21887159 418.33973706 C177.84449031 418.3090691 171.47007538 418.29535065 165.09564161 418.28022778 C152.58448481 418.24803677 140.07347274 418.19739718 127.56243849 418.13374341 C127.56243849 418.79374341 127.56243849 419.45374341 127.56243849 420.13374341 C128.11286818 420.37737622 128.66329786 420.62100903 129.23040724 420.87202466 C146.04602294 429.96992059 158.61087931 447.59400605 164.66790724 465.37983716 C165.90992491 469.95722622 166.61626633 474.07990112 166.58807325 478.82197583 C166.58437223 479.63011227 166.58067122 480.43824872 166.57685804 481.27087414 C166.57209959 481.885621 166.56734114 482.50036786 166.56243849 483.13374341 C143.17027933 483.25070787 119.77816862 483.33879583 96.38577604 483.39280427 C85.5235027 483.41855139 74.66141138 483.4536351 63.79925489 483.51094067 C54.32832375 483.56088259 44.85752448 483.59305979 35.38646531 483.60418588 C30.37469779 483.61068637 25.36330746 483.62589134 20.35166121 483.66239369 C15.6270987 483.69652379 10.90306602 483.70676223 6.17839193 483.69928181 C4.45151651 483.70064879 2.72462196 483.71047945 0.99785376 483.72977078 C-12.76926271 483.87593293 -24.61141196 481.45626108 -35.43756151 472.13374341 C-35.43756151 471.47374341 -35.43756151 470.81374341 -35.43756151 470.13374341 C-36.09756151 470.13374341 -36.75756151 470.13374341 -37.43756151 470.13374341 C-37.43756151 469.47374341 -37.43756151 468.81374341 -37.43756151 468.13374341 C-38.09756151 468.13374341 -38.75756151 468.13374341 -39.43756151 468.13374341 C-39.43756151 467.47374341 -39.43756151 466.81374341 -39.43756151 466.13374341 C-40.09756151 466.13374341 -40.75756151 466.13374341 -41.43756151 466.13374341 C-41.43756151 465.47374341 -41.43756151 464.81374341 -41.43756151 464.13374341 C-42.09756151 464.13374341 -42.75756151 464.13374341 -43.43756151 464.13374341 C-43.43756151 463.47374341 -43.43756151 462.81374341 -43.43756151 462.13374341 C-44.09756151 462.13374341 -44.75756151 462.13374341 -45.43756151 462.13374341 C-47.20709276 459.78218091 -47.20709276 459.78218091 -49.25006151 456.50874341 C-50.24972948 454.94253247 -50.24972948 454.94253247 -51.26959276 453.34468091 C-57.52301418 441.92264364 -59.171237 431.42517954 -59.05902147 418.55297863 C-59.06335988 416.92213175 -59.06988435 415.2912895 -59.07838154 413.66045898 C-59.09525288 409.21704527 -59.08127666 404.7742014 -59.06186676 400.33081818 C-59.04636007 395.52441846 -59.05986191 390.71808499 -59.06961107 385.91168225 C-59.08409808 376.51238085 -59.07194462 367.11329631 -59.05049783 357.71401551 C-59.02642973 346.76223163 -59.02820567 335.81049683 -59.03080374 324.85869239 C-59.03448944 305.3180883 -59.01370451 285.77758612 -58.9795537 266.23701489 C-58.9464425 247.28418923 -58.93229977 228.33147045 -58.93853807 209.37861645 C-58.94530361 188.72244037 -58.94283892 168.06630898 -58.92317867 147.4101395 C-58.92213919 146.31775356 -58.9210997 145.22536761 -58.92002872 144.09987906 C-58.91793787 141.90604671 -58.9158269 139.71221438 -58.91369554 137.51838207 C-58.90680465 129.88711555 -58.90612982 122.25586283 -58.90757799 114.62459385 C-58.90901831 105.32674836 -58.89931496 96.02898992 -58.87563163 86.7311733 C-58.86378105 81.9887763 -58.85664035 77.24650057 -58.8624692 72.50408947 C-58.86764938 68.16113466 -58.85892335 63.81843582 -58.8391946 59.47552476 C-58.83446384 57.90648695 -58.8347433 56.33742414 -58.84060496 54.76839014 C-58.89066863 39.93132873 -55.80391802 29.89373493 -46.12506151 18.38374341 C-44.79474901 17.26999341 -44.79474901 17.26999341 -43.43756151 16.13374341 C-42.81107714 15.60522778 -42.18459276 15.07671216 -41.53912401 14.53218091 C-36.21138294 10.40454533 -30.59930218 7.72281233 -24.37506151 5.25874341 C-23.25998217 4.81135815 -23.25998217 4.81135815 -22.12237597 4.35493481 C-17.46490692 2.596027 -13.15813419 1.69474707 -8.18975878 1.34028637 C-5.36714088 1.00756591 -3.22330811 0.01186384 0 0 Z " fill="#1688F1" transform="translate(58.43756151199341,-0.13374340534210205)"/>
<path d="M0 0 C1.34592097 1.65651812 2.67518731 3.32655239 4 5 C4.49371094 5.61617188 4.98742188 6.23234375 5.49609375 6.8671875 C7.9882219 10.06158618 9.87727361 12.67272963 11.3125 16.5 C15.1680737 24.49674545 23.57470807 29.29363703 30.83349609 34.03076172 C32.2550273 34.9729443 33.63237319 35.98114973 35 37 C35 37.66 35 38.32 35 39 C35.72574219 39.2578125 36.45148437 39.515625 37.19921875 39.78125 C40.12047667 41.05242499 42.30872649 42.54016402 44.8125 44.5 C45.60269531 45.1084375 46.39289062 45.716875 47.20703125 46.34375 C47.79871094 46.8903125 48.39039063 47.436875 49 48 C49 48.66 49 49.32 49 50 C49.99 50 50.98 50 52 50 C52 50.66 52 51.32 52 52 C52.66 52 53.32 52 54 52 C54 52.66 54 53.32 54 54 C54.5775 54.28875 55.155 54.5775 55.75 54.875 C57.83333333 55.91666667 59.91666667 56.95833333 62 58 C62 58.66 62 59.32 62 60 C63.32 60.66 64.64 61.32 66 62 C66 62.66 66 63.32 66 64 C66.66 64.20625 67.32 64.4125 68 64.625 C71.45494442 66.20851619 74.09373259 68.27789431 77.03515625 70.66015625 C78.87143023 72.09747465 78.87143023 72.09747465 80.84765625 72.37890625 C84.24197953 73.35839337 86.68162976 75.67551401 89.375 77.875 C90.63789911 78.88687068 91.90092328 79.8985853 93.1640625 80.91015625 C93.80504883 81.42723145 94.44603516 81.94430664 95.10644531 82.47705078 C97.96900183 84.77934933 100.85894196 87.04617248 103.75 89.3125 C104.59957275 89.98031494 104.59957275 89.98031494 105.46630859 90.66162109 C110.29790767 94.4577822 115.14788942 98.23011038 120 102 C128.92668955 108.93566928 137.81890977 115.91419912 146.6953125 122.9140625 C147.31116211 123.39915283 147.92701172 123.88424316 148.56152344 124.3840332 C149.71906264 125.29582128 150.87602369 126.20834414 152.03222656 127.12182617 C153.08450854 127.95045849 154.14324209 128.77098376 155.20918655 129.58196545 C157 131 157 131 158.65388107 132.54144001 C164.50105263 137.65310492 169.4862924 137.84108443 177.04394531 137.7253418 C178.82096329 137.73405807 178.82096329 137.73405807 180.63388062 137.74295044 C183.86135283 137.75351634 187.08743592 137.73796972 190.31477451 137.71149802 C193.70020265 137.69085055 197.08544706 137.7066304 200.47088623 137.7191925 C206.87628331 137.73802323 213.28128289 137.72908671 219.68666148 137.70787126 C231.16677861 137.6700907 242.64684226 137.66601476 254.12698817 137.69272357 C257.49400936 137.69948439 260.86071075 137.69859126 264.22769928 137.68100548 C267.9764444 137.66241152 271.72485071 137.66107863 275.47363281 137.6628418 C276.58747345 137.65198044 277.70131409 137.64111908 278.84890747 137.62992859 C280.37960373 137.63572937 280.37960373 137.63572937 281.94122314 137.64164734 C282.82681538 137.63846339 283.71240761 137.63527945 284.62483597 137.63199902 C287.53044085 138.08218496 288.90359668 138.96003496 291 141 C291.4375 144 291.4375 144 291 147 C289.43579489 149.07799982 288.55756167 149.89833952 285.97541523 150.36914349 C285.19650016 150.36637811 284.41758509 150.36361273 283.61506653 150.36076355 C282.71904221 150.36488754 281.82301788 150.36901154 280.89984131 150.3732605 C279.91944885 150.36247467 278.9390564 150.35168884 277.92895508 150.34057617 C276.89463852 150.34101425 275.86032196 150.34145233 274.79466248 150.34190369 C271.36942797 150.33981051 267.94468045 150.31645402 264.51953125 150.29296875 C262.14727547 150.28737469 259.77501622 150.2831037 257.40275574 150.28010559 C251.15388448 150.26864191 244.90522184 150.23916143 238.65643311 150.20599365 C232.28205182 150.17532569 225.90763689 150.16160725 219.53320312 150.14648438 C207.02204632 150.11429336 194.51103425 150.06365377 182 150 C182 150.66 182 151.32 182 152 C182.55042969 152.24363281 183.10085937 152.48726562 183.66796875 152.73828125 C200.48358445 161.83617718 213.04844083 179.46026264 219.10546875 197.24609375 C220.34748642 201.82348282 221.05382784 205.94615772 221.02563477 210.68823242 C221.02193375 211.49636887 221.01823273 212.30450531 221.01441956 213.13713074 C221.0096611 213.75187759 221.00490265 214.36662445 221 215 C197.60784085 215.11696447 174.21573013 215.20505243 150.82333755 215.25906086 C139.96106421 215.28480798 129.09897289 215.31989169 118.23681641 215.37719727 C108.76588526 215.42713919 99.295086 215.45931638 89.82402682 215.47044247 C84.81225931 215.47694297 79.80086897 215.49214793 74.78922272 215.52865028 C70.06466021 215.56278038 65.34062753 215.57301882 60.61595345 215.56553841 C58.88907802 215.56690539 57.16218348 215.57673605 55.43541527 215.59602737 C41.66829881 215.74218952 29.82614955 213.32251767 19 204 C19 203.34 19 202.68 19 202 C18.34 202 17.68 202 17 202 C17 201.34 17 200.68 17 200 C16.34 200 15.68 200 15 200 C15 199.34 15 198.68 15 198 C14.34 198 13.68 198 13 198 C13 197.34 13 196.68 13 196 C12.34 196 11.68 196 11 196 C11 195.34 11 194.68 11 194 C10.34 194 9.68 194 9 194 C7.23046875 191.6484375 7.23046875 191.6484375 5.1875 188.375 C4.52105469 187.33085937 3.85460937 186.28671875 3.16796875 185.2109375 C-3.13198507 173.6979555 -4.72703679 163.17403406 -4.56762695 150.26416016 C-4.56621282 148.63650049 -4.56701557 147.00883764 -4.56983948 145.38117981 C-4.57126081 141.00789418 -4.54208174 136.63530897 -4.50696969 132.26218462 C-4.47548968 127.67518293 -4.47275853 123.08816117 -4.46684265 118.50106812 C-4.45136731 109.83509406 -4.41042522 101.16943935 -4.3600952 92.50360525 C-4.30400413 82.62926948 -4.27666577 72.75491762 -4.25161803 62.88046193 C-4.19950302 42.58679711 -4.11168483 22.29341876 -4 2 C-2.68 1.34 -1.36 0.68 0 0 Z " fill="#0B62E7" transform="translate(4,268)"/>
<path d="M0 0 C4.4967397 1.2735292 7.58237858 2.91265216 11.1875 5.875 C12.02667969 6.55304687 12.86585938 7.23109375 13.73046875 7.9296875 C15.8262383 9.84149105 17.46964376 11.61723035 19 14 C19 14.66 19 15.32 19 16 C19.5775 16.2475 20.155 16.495 20.75 16.75 C23.32939979 18.18299988 25.06121592 19.78424676 27 22 C27 22.66 27 23.32 27 24 C27.66 24 28.32 24 29 24 C29 24.66 29 25.32 29 26 C29.66 26 30.32 26 31 26 C31 26.66 31 27.32 31 28 C31.66 28 32.32 28 33 28 C33 28.66 33 29.32 33 30 C33.66 30 34.32 30 35 30 C35 30.66 35 31.32 35 32 C35.66 32 36.32 32 37 32 C42 37.47619048 42 37.47619048 42 40 C42.66 40 43.32 40 44 40 C44 40.66 44 41.32 44 42 C44.66 42 45.32 42 46 42 C46 42.66 46 43.32 46 44 C46.66 44 47.32 44 48 44 C48 44.66 48 45.32 48 46 C48.66 46 49.32 46 50 46 C50 46.66 50 47.32 50 48 C50.66 48 51.32 48 52 48 C52 48.66 52 49.32 52 50 C52.66 50 53.32 50 54 50 C54 50.66 54 51.32 54 52 C54.66 52 55.32 52 56 52 C56 52.66 56 53.32 56 54 C56.66 54 57.32 54 58 54 C58 54.66 58 55.32 58 56 C58.66 56 59.32 56 60 56 C60 56.66 60 57.32 60 58 C60.66 58 61.32 58 62 58 C66 62.47058824 66 62.47058824 66 65 C66.66 65 67.32 65 68 65 C68 65.66 68 66.32 68 67 C68.66 67 69.32 67 70 67 C70 67.66 70 68.32 70 69 C70.66 69 71.32 69 72 69 C72 69.66 72 70.32 72 71 C72.66 71 73.32 71 74 71 C74 71.66 74 72.32 74 73 C74.66 73 75.32 73 76 73 C76 73.66 76 74.32 76 75 C76.66 75 77.32 75 78 75 C78 75.66 78 76.32 78 77 C78.66 77 79.32 77 80 77 C80 77.66 80 78.32 80 79 C80.66 79 81.32 79 82 79 C82 79.66 82 80.32 82 81 C82.66 81 83.32 81 84 81 C84 81.66 84 82.32 84 83 C84.66 83 85.32 83 86 83 C91 88.47619048 91 88.47619048 91 91 C91.66 91 92.32 91 93 91 C93 91.66 93 92.32 93 93 C93.66 93 94.32 93 95 93 C95 93.66 95 94.32 95 95 C95.66 95 96.32 95 97 95 C97 95.66 97 96.32 97 97 C97.66 97 98.32 97 99 97 C99 97.66 99 98.32 99 99 C99.66 99 100.32 99 101 99 C102.69140625 100.64453125 102.69140625 100.64453125 104.5625 102.8125 C105.18253906 103.52019531 105.80257812 104.22789063 106.44140625 104.95703125 C108 107 108 107 109 110 C109.66 110 110.32 110 111 110 C111 110.66 111 111.32 111 112 C111.66 112 112.32 112 113 112 C113 112.66 113 113.32 113 114 C113.66 114 114.32 114 115 114 C115 114.66 115 115.32 115 116 C115.66 116 116.32 116 117 116 C117 116.66 117 117.32 117 118 C117.66 118 118.32 118 119 118 C120.5078125 119.79296875 120.5078125 119.79296875 122.125 122.1875 C122.66382813 122.96480469 123.20265625 123.74210937 123.7578125 124.54296875 C125.13704931 127.27108181 125.24624707 128.98614999 125 132 C124.2575 131.38125 123.515 130.7625 122.75 130.125 C117.54981532 126.10667548 113.7491924 125.71235403 107.22753906 125.74462891 C105.89994568 125.73919823 105.89994568 125.73919823 104.54553223 125.73365784 C102.62489095 125.72676857 100.70423012 125.72425752 98.78357697 125.72560501 C95.73967784 125.72657073 92.69613138 125.71362147 89.65228271 125.69662476 C80.99835968 125.65037287 72.34447206 125.62575637 63.69042969 125.61914062 C58.39479213 125.61411622 53.09952159 125.58981668 47.80400848 125.55381393 C45.78989621 125.54403536 43.77573331 125.54167335 41.76160431 125.54698563 C38.93735263 125.55408358 36.11418813 125.536717 33.29003906 125.51416016 C32.4648175 125.52233261 31.63959595 125.53050507 30.78936768 125.53892517 C24.07558006 125.44396703 18.87385885 123.51271907 13.79296875 119.0703125 C13.26316406 118.42835937 12.73335938 117.78640625 12.1875 117.125 C11.37345703 116.16980469 11.37345703 116.16980469 10.54296875 115.1953125 C6.83036844 109.91308118 5.62674867 105.90376276 5.65942383 99.43408203 C5.65876671 98.3354911 5.65876671 98.3354911 5.65809631 97.21470642 C5.66017373 94.81213007 5.6834542 92.4102658 5.70703125 90.0078125 C5.71263095 88.33487326 5.71689928 86.66192908 5.71989441 84.98898315 C5.73131375 80.59946966 5.76075562 76.21025698 5.79400635 71.82086182 C5.8247702 67.3363451 5.83841321 62.85177947 5.85351562 58.3671875 C5.8856284 49.577972 5.9383723 40.78905815 6 32 C-3.24 32 -12.48 32 -22 32 C-22 31.67 -22 31.34 -22 31 C-13.31320899 30.28038418 -4.71700174 29.85631316 4 30 C4.08820927 26.83351345 4.1407905 23.66734908 4.1875 20.5 C4.21263672 19.613125 4.23777344 18.72625 4.26367188 17.8125 C4.33894565 10.98767771 3.06570064 6.13140128 0 0 Z " fill="#0F43CB" transform="translate(278,5)"/>
<path d="M0 0 C1.22962967 -0.00845947 2.45925934 -0.01691895 3.72615051 -0.02563477 C5.08586253 -0.01980209 6.44557324 -0.0136576 7.80528259 -0.00723267 C9.23941447 -0.01129841 10.67354321 -0.01664031 12.10766602 -0.02316284 C16.00014653 -0.03684082 19.89238855 -0.03153622 23.78487325 -0.02202559 C27.85674132 -0.01443293 31.9285889 -0.02147336 36.00045776 -0.02618408 C42.83745493 -0.03164217 49.67435487 -0.02444801 56.51133728 -0.01016235 C64.41965458 0.00617083 72.32773993 0.00087109 80.23605162 -0.01564157 C87.02340434 -0.02924718 93.81068716 -0.03118084 100.5980491 -0.02332556 C104.65304171 -0.01864477 108.70792521 -0.01803541 112.76291084 -0.02793503 C116.57394609 -0.03658925 120.38468163 -0.0306114 124.19568443 -0.01325226 C125.59573493 -0.00927938 126.99581058 -0.01043515 128.39585114 -0.01704025 C130.30384939 -0.02521319 132.21190265 -0.01315642 134.11987305 0 C135.1885666 0.00113108 136.25726015 0.00226215 137.35833836 0.00342751 C139.9964447 0.38095093 139.9964447 0.38095093 141.84029293 1.68210411 C143.77657177 4.52726789 143.35791896 7.06743694 142.9964447 10.38095093 C139.50912853 12.70582838 138.14958587 12.63386128 134.03048706 12.64164734 C132.78395859 12.64873215 131.53743011 12.65581696 130.25312805 12.66311646 C128.86930811 12.66082259 127.48548851 12.65831288 126.10166931 12.65560913 C124.64635964 12.6599556 123.19105226 12.66513853 121.73574829 12.6710968 C117.78134658 12.68450283 113.82704035 12.68506387 109.87262034 12.6825335 C106.57461987 12.68146521 103.27663884 12.68634333 99.97864252 12.69113892 C92.20160286 12.70223893 84.4246115 12.70266827 76.64756775 12.69662476 C68.61486221 12.69057879 60.58233155 12.70291057 52.54965585 12.72419482 C45.65958853 12.7417826 38.76957701 12.7478168 31.87948805 12.74455708 C27.76134554 12.74274009 23.64332787 12.7454219 19.52520561 12.75927162 C15.65510882 12.77180015 11.78528589 12.76995355 7.91519356 12.75686073 C6.49214208 12.75448475 5.06907161 12.75726598 3.64604187 12.76548386 C1.70919225 12.77586563 -0.22773466 12.76609623 -2.1645813 12.75517273 C-3.79307558 12.75542434 -3.79307558 12.75542434 -5.45446873 12.75568104 C-6.71626658 12.57018963 -6.71626658 12.57018963 -8.0035553 12.38095093 C-10.31717332 8.91052389 -10.51376258 7.46260919 -10.0035553 3.38095093 C-6.86225803 0.21015968 -4.35701531 0.00460972 0 0 Z " fill="#D0D3DA" transform="translate(114.00355529785156,250.61904907226563)"/>
<path d="M0 0 C1.22680984 -0.00845947 2.45361969 -0.01691895 3.71760559 -0.02563477 C5.07936228 -0.01980166 6.44111767 -0.01365714 7.8028717 -0.00723267 C9.23523357 -0.01129723 10.6675923 -0.01663847 12.09994507 -0.02316284 C15.9925518 -0.03685731 19.88492041 -0.03152879 23.77753139 -0.02202559 C27.84893744 -0.0144385 31.92032289 -0.02147208 35.99172974 -0.02618408 C42.83050706 -0.03164504 49.66918725 -0.02444178 56.50794983 -0.01016235 C64.41565839 0.00615834 72.32313484 0.00088132 80.23083776 -0.01564157 C87.0173367 -0.02925456 93.80376574 -0.03117683 100.59027392 -0.02332556 C104.64475436 -0.01864716 108.69912572 -0.0180286 112.75359917 -0.02793503 C116.56626563 -0.03659951 120.37863288 -0.0305925 124.19126701 -0.01325226 C125.59089664 -0.00928433 126.99055143 -0.01042673 128.39017105 -0.01704025 C130.30006259 -0.025233 132.21000913 -0.01313927 134.11987305 0 C135.18894362 0.00113108 136.2580142 0.00226215 137.35948086 0.00342751 C140.50761926 0.43342699 141.89600567 1.13793067 144.12342834 3.38095093 C144.57491998 6.4768936 144.79075194 8.4190383 142.96895695 11.04506207 C140.33173853 12.95401688 138.39579514 12.7556729 135.1574707 12.75517273 C133.91094223 12.76218704 132.66441376 12.76920135 131.38011169 12.77642822 C129.99629051 12.76900034 128.61247093 12.76126918 127.22865295 12.75326538 C125.7733433 12.75569296 124.31803531 12.75941196 122.86273193 12.764328 C118.90826713 12.77374447 114.9540495 12.76430579 110.99960399 12.75099587 C106.86587526 12.73969386 102.73215892 12.74378786 98.59841919 12.7457428 C91.65708875 12.74662607 84.71585591 12.73553762 77.77455139 12.71713257 C69.74187387 12.69595609 61.70933928 12.69245662 53.6766395 12.69869453 C45.9575085 12.70438268 38.23842799 12.69874956 30.51930428 12.68752098 C27.23025647 12.68286855 23.94123947 12.6820039 20.65218925 12.68410683 C16.78212541 12.68598598 12.91220772 12.67791474 9.0421772 12.66204643 C7.61913279 12.65779237 6.19607358 12.65696053 4.77302551 12.65973663 C2.83614439 12.66294277 0.89925469 12.65268065 -1.03759766 12.64164734 C-2.12326051 12.63959447 -3.20892336 12.6375416 -4.32748508 12.63542652 C-6.87657166 12.38095093 -6.87657166 12.38095093 -8.87657166 10.38095093 C-9.43772183 4.20829906 -9.43772183 4.20829906 -7.72432613 1.68210411 C-5.10273583 -0.16396939 -3.19194803 0.00337827 0 0 Z " fill="#CED1D8" transform="translate(112.87657165527344,339.6190490722656)"/>
<path d="M0 0 C1.85500374 -0.01268921 1.85500374 -0.01268921 3.7474823 -0.02563477 C5.12027109 -0.01980169 6.49305858 -0.01365717 7.86584473 -0.00723267 C9.30968117 -0.01129717 10.7535145 -0.01663836 12.19734192 -0.02316284 C16.12087164 -0.03685686 20.04416511 -0.03152929 23.96769905 -0.02202559 C28.07026947 -0.01443974 32.17281942 -0.0214716 36.27539062 -0.02618408 C43.16544229 -0.03164478 50.05539754 -0.02444181 56.94543457 -0.01016235 C64.91564647 0.0061648 72.88562816 0.00087652 80.85583448 -0.01564157 C87.69412188 -0.02924752 94.53233991 -0.03118048 101.37063646 -0.02332556 C105.45694281 -0.01864412 109.54314088 -0.01803706 113.62944031 -0.02793503 C117.47083013 -0.03658951 121.31192262 -0.03061088 125.15328026 -0.01325226 C126.56461785 -0.00927924 127.97598039 -0.01043538 129.38730812 -0.01704025 C131.31068667 -0.02521283 133.23411979 -0.01315674 135.1574707 0 C136.77352077 0.00169662 136.77352077 0.00169662 138.42221832 0.00342751 C141.07873535 0.38095093 141.07873535 0.38095093 142.92537689 1.71726036 C144.72495344 4.31310426 144.46180796 6.31637004 144.07873535 9.38095093 C142.92537689 11.04464149 142.92537689 11.04464149 141.07873535 12.38095093 C138.42221832 12.75847435 138.42221832 12.75847435 135.1574707 12.76190186 C133.30246696 12.77459106 133.30246696 12.77459106 131.4099884 12.78753662 C130.03719962 12.78170354 128.66441212 12.77555903 127.29162598 12.76913452 C125.84778954 12.77319902 124.4039562 12.77854022 122.96012878 12.7850647 C119.03659906 12.79875872 115.11330559 12.79343115 111.18977165 12.78392744 C107.08720123 12.7763416 102.98465128 12.78337345 98.88208008 12.78808594 C91.99202841 12.79354664 85.10207316 12.78634367 78.21203613 12.77206421 C70.24182423 12.75573705 62.27184254 12.76102534 54.30163622 12.77754343 C47.46334882 12.79114937 40.6251308 12.79308234 33.78683424 12.78522742 C29.7005279 12.78054597 25.61432982 12.77993892 21.5280304 12.78983688 C17.68664058 12.79849137 13.84554808 12.79251274 10.00419044 12.77515411 C8.59285285 12.7711811 7.18149031 12.77233723 5.77016258 12.77894211 C3.84678403 12.78711468 1.92335092 12.7750586 0 12.76190186 C-1.61605007 12.76020524 -1.61605007 12.76020524 -3.26474762 12.75847435 C-5.92126465 12.38095093 -5.92126465 12.38095093 -7.76790619 11.04464149 C-9.56748273 8.44879759 -9.30433726 6.44553181 -8.92126465 3.38095093 C-6.4848559 -0.1335074 -4.0912034 0.00429516 0 0 Z " fill="#D3D6DC" transform="translate(112.9212646484375,295.6190490722656)"/>
<path d="M0 0 C1.85500374 -0.01268921 1.85500374 -0.01268921 3.7474823 -0.02563477 C5.12027109 -0.01980169 6.49305858 -0.01365717 7.86584473 -0.00723267 C9.30968117 -0.01129717 10.7535145 -0.01663836 12.19734192 -0.02316284 C16.12087164 -0.03685686 20.04416511 -0.03152929 23.96769905 -0.02202559 C28.07026947 -0.01443974 32.17281942 -0.0214716 36.27539062 -0.02618408 C43.16544229 -0.03164478 50.05539754 -0.02444181 56.94543457 -0.01016235 C64.91564647 0.0061648 72.88562816 0.00087652 80.85583448 -0.01564157 C87.69412188 -0.02924752 94.53233991 -0.03118048 101.37063646 -0.02332556 C105.45694281 -0.01864412 109.54314088 -0.01803706 113.62944031 -0.02793503 C117.47083013 -0.03658951 121.31192262 -0.03061088 125.15328026 -0.01325226 C126.56461785 -0.00927924 127.97598039 -0.01043538 129.38730812 -0.01704025 C131.31068667 -0.02521283 133.23411979 -0.01315674 135.1574707 0 C136.77352077 0.00169662 136.77352077 0.00169662 138.42221832 0.00342751 C141.07873535 0.38095093 141.07873535 0.38095093 142.92537689 1.71726036 C144.72495344 4.31310426 144.46180796 6.31637004 144.07873535 9.38095093 C142.92537689 11.04464149 142.92537689 11.04464149 141.07873535 12.38095093 C138.42221832 12.75847435 138.42221832 12.75847435 135.1574707 12.76190186 C133.30246696 12.77459106 133.30246696 12.77459106 131.4099884 12.78753662 C130.03719962 12.78170354 128.66441212 12.77555903 127.29162598 12.76913452 C125.84778954 12.77319902 124.4039562 12.77854022 122.96012878 12.7850647 C119.03659906 12.79875872 115.11330559 12.79343115 111.18977165 12.78392744 C107.08720123 12.7763416 102.98465128 12.78337345 98.88208008 12.78808594 C91.99202841 12.79354664 85.10207316 12.78634367 78.21203613 12.77206421 C70.24182423 12.75573705 62.27184254 12.76102534 54.30163622 12.77754343 C47.46334882 12.79114937 40.6251308 12.79308234 33.78683424 12.78522742 C29.7005279 12.78054597 25.61432982 12.77993892 21.5280304 12.78983688 C17.68664058 12.79849137 13.84554808 12.79251274 10.00419044 12.77515411 C8.59285285 12.7711811 7.18149031 12.77233723 5.77016258 12.77894211 C3.84678403 12.78711468 1.92335092 12.7750586 0 12.76190186 C-1.61605007 12.76020524 -1.61605007 12.76020524 -3.26474762 12.75847435 C-5.92126465 12.38095093 -5.92126465 12.38095093 -7.76790619 11.04464149 C-9.56748273 8.44879759 -9.30433726 6.44553181 -8.92126465 3.38095093 C-6.4848559 -0.1335074 -4.0912034 0.00429516 0 0 Z " fill="#D2D4DB" transform="translate(112.9212646484375,206.61904907226563)"/>
<path d="M0 0 C15.70733294 -0.07006891 31.41462371 -0.12297774 47.12207413 -0.15543652 C54.4152575 -0.17090802 61.70834378 -0.19200286 69.00146484 -0.22631836 C75.35786337 -0.25621216 81.71419158 -0.27557295 88.07065845 -0.28226548 C91.43665186 -0.28617782 94.80244413 -0.29537794 98.16837311 -0.31719017 C101.92519684 -0.33888885 105.6816005 -0.34197002 109.43847656 -0.34057617 C111.11406395 -0.35675491 111.11406395 -0.35675491 112.82350159 -0.3732605 C113.84711288 -0.36913651 114.87072418 -0.36501251 115.925354 -0.36076355 C116.81396244 -0.36352893 117.70257088 -0.36629431 118.61810684 -0.36914349 C121.52743704 0.08174168 122.9013307 0.95683054 125 3 C125.4375 6 125.4375 6 125 9 C123.44388759 11.05469689 122.53881863 11.88918665 119.9933176 12.41269398 C119.22261401 12.43029113 118.45191042 12.44788828 117.65785217 12.46601868 C116.77075562 12.49300842 115.88365906 12.51999817 114.96968079 12.54780579 C113.99879013 12.56208115 113.02789948 12.57635651 112.02758789 12.59106445 C110.49039597 12.63044632 110.49039597 12.63044632 108.92214966 12.67062378 C105.52243981 12.75200653 102.12291337 12.80978074 98.72265625 12.86328125 C97.5599011 12.88404409 96.39714596 12.90480694 95.19915581 12.92619896 C89.03876541 13.03538227 82.87840953 13.12642721 76.7175293 13.20288086 C70.37132834 13.28510442 64.02805773 13.42808454 57.68334293 13.58559895 C52.79088924 13.69590585 47.89856754 13.76067279 43.00518608 13.81340599 C40.66749572 13.84641149 38.32997709 13.89629087 35.99302864 13.96380043 C14.84791287 14.54680402 14.84791287 14.54680402 7.65795898 8.13354492 C6.05000291 6.47422241 4.48594896 4.76941505 3 3 C2.00750315 1.99255273 1.00898389 0.99093466 0 0 Z " fill="#398AF8" transform="translate(170,406)"/>
<path d="M0 0 C2.64 0 5.28 0 8 0 C8 1.65 8 3.3 8 5 C8.90492188 5.25523437 8.90492188 5.25523437 9.828125 5.515625 C14.51063372 6.93548248 17.85311149 8.03218406 21 12 C19.84826645 14.46800047 18.95216435 16.04783565 17 18 C13.66543981 18.46313336 12.09098211 18.04645895 9.0625 16.5 C5.70250421 14.85428777 3.68880977 14.66465366 0 15 C-0.99 15.495 -0.99 15.495 -2 16 C-2 17.98 -2 19.96 -2 22 C-1.38253906 22.24234375 -0.76507813 22.4846875 -0.12890625 22.734375 C1.64879322 23.4378786 3.42334628 24.14936549 5.1953125 24.8671875 C6.95393186 25.57749337 8.71882561 26.27265799 10.4921875 26.9453125 C15.67796948 29.0231174 19.15837098 30.95840012 22 36 C22.89391014 41.35547948 22.67964319 45.59036968 20.3125 50.5 C17.18076037 53.88566447 14.87675809 55.87488279 10.1875 56.1875 C9.465625 56.125625 8.74375 56.06375 8 56 C8 57.98 8 59.96 8 62 C5.36 62 2.72 62 0 62 C-0.06574219 61.21753906 -0.13148438 60.43507813 -0.19921875 59.62890625 C-0.72198412 56.83327823 -0.72198412 56.83327823 -3.14453125 55.77734375 C-4.02496094 55.50019531 -4.90539062 55.22304688 -5.8125 54.9375 C-12.72079047 52.47308119 -12.72079047 52.47308119 -15 49 C-15 46.9375 -15 46.9375 -14 45 C-12.1875 43.1875 -12.1875 43.1875 -10 42 C-7.32054237 42.17286823 -6.04124177 42.96967517 -3.875 44.5625 C0.27248527 46.63624264 4.43172387 46.62257922 9 46 C11.28728734 44.16116119 11.28728734 44.16116119 11.125 41.375 C11.08375 40.59125 11.0425 39.8075 11 39 C10.32195312 38.76925781 9.64390625 38.53851563 8.9453125 38.30078125 C-6.37983048 32.93061342 -6.37983048 32.93061342 -12.625 27.875 C-14.80981845 23.30674323 -14.84437783 18.9570802 -14 14 C-11.91166292 9.74629702 -8.25163545 6.96229329 -4 5 C-2.68 5 -1.36 5 0 5 C0 3.35 0 1.7 0 0 Z " fill="#3276F3" transform="translate(329,376)"/>
<path d="M0 0 C1.20774834 -0.005476 1.20774834 -0.005476 2.43989563 -0.01106262 C5.10402453 -0.01917516 7.76754653 -0.00555237 10.43164062 0.0090332 C12.28104655 0.00955173 14.13045302 0.00903433 15.9798584 0.00752258 C19.85693585 0.00761234 23.7338055 0.01804841 27.61083984 0.03613281 C32.58443679 0.05882007 37.55773 0.05936443 42.53136444 0.05261517 C46.35059313 0.04927616 50.16975237 0.05590399 53.9889679 0.0657444 C55.82301978 0.06959787 57.65707939 0.07074401 59.49113464 0.06915855 C62.05283364 0.06878834 64.61414099 0.08139578 67.17578125 0.09765625 C67.93639359 0.09517883 68.69700592 0.09270142 69.48066711 0.09014893 C73.22681194 0.12816398 74.88967186 0.24016861 78.08789062 2.37231445 C78.73500176 8.30416651 78.73500176 8.30416651 77.05895996 11.07070923 C73.97391068 13.10793653 70.75133902 12.78904513 67.17578125 12.76049805 C65.96803291 12.76838348 65.96803291 12.76838348 64.73588562 12.77642822 C62.07177386 12.7896427 59.40825857 12.78088518 56.74414062 12.77075195 C54.89473353 12.77277228 53.04532721 12.77568336 51.19592285 12.77944946 C47.31885192 12.78387477 43.44198826 12.77743512 39.56494141 12.76342773 C34.59126539 12.74633571 29.618075 12.75617579 24.64441681 12.77414513 C20.82517833 12.78497738 17.00605528 12.78153919 13.18681335 12.77376175 C11.35275719 12.7717582 9.5186906 12.77422445 7.68464661 12.78120041 C5.12281467 12.78880576 2.56177297 12.77722396 0 12.76049805 C-1.1409185 12.76960709 -1.1409185 12.76960709 -2.30488586 12.77890015 C-7.40369105 12.71711918 -7.40369105 12.71711918 -9.88317871 11.03555298 C-11.50721121 8.41034846 -11.28771289 6.37714257 -10.91210938 3.37231445 C-8.38717398 -0.71160904 -4.30052644 -0.04321794 0 0 Z " fill="#2A74F5" transform="translate(114.912109375,162.627685546875)"/>
<path d="M0 0 C1.3756311 -0.00786278 1.3756311 -0.00786278 2.77905273 -0.0158844 C4.71564726 -0.02230031 6.65228078 -0.02097318 8.58886719 -0.01245117 C11.5521372 -0.00393603 14.51348265 -0.03271638 17.4765625 -0.06445312 C19.35937442 -0.06606512 21.24218976 -0.06548764 23.125 -0.0625 C24.45325806 -0.07935097 24.45325806 -0.07935097 25.80834961 -0.09654236 C31.9347174 -0.02710413 31.9347174 -0.02710413 35.1171875 2.30834961 C36.5625 4.43359375 36.5625 4.43359375 37.125 6.93359375 C36.5625 9.43359375 36.5625 9.43359375 34.60961914 11.55883789 C30.41707721 14.13832106 27.07627195 13.99289541 22.24609375 13.9296875 C21.35261734 13.93114273 20.45914093 13.93259796 19.53858948 13.93409729 C17.6550062 13.93244139 15.77140896 13.92091472 13.88793945 13.90014648 C11.00608888 13.871155 8.12607479 13.87955105 5.24414062 13.89257812 C3.4114494 13.88634138 1.57876398 13.87795094 -0.25390625 13.8671875 C-1.11440079 13.87012314 -1.97489532 13.87305878 -2.86146545 13.87608337 C-6.38706362 13.82049072 -8.81240086 13.75523622 -11.98022461 12.12524414 C-13.4375 10.43359375 -13.4375 10.43359375 -13.9375 6.93359375 C-13.4375 3.43359375 -13.4375 3.43359375 -11.99609375 1.74194336 C-8.0811206 -0.25999759 -4.33785551 -0.01438091 0 0 Z " fill="#CCCFD7" transform="translate(321.4375,250.56640625)"/>
<path d="M0 0 C0.84775497 -0.01268417 1.69550995 -0.02536835 2.56895447 -0.03843689 C3.4814949 -0.03550125 4.39403534 -0.03256561 5.33422852 -0.02954102 C6.74527611 -0.03740379 6.74527611 -0.03740379 8.18482971 -0.04542542 C10.1744793 -0.05184933 12.16416684 -0.05050385 14.15380859 -0.04199219 C17.19836103 -0.03348853 20.24103371 -0.06222812 23.28540039 -0.09399414 C25.21834254 -0.09560639 27.15128801 -0.09502818 29.08422852 -0.09204102 C29.99474472 -0.10327499 30.90526093 -0.11450897 31.84336853 -0.12608337 C38.1203711 -0.05688164 38.1203711 -0.05688164 41.38525391 2.23974609 C42.77563477 4.40405273 42.77563477 4.40405273 42.71313477 7.52905273 C41.77563477 10.40405273 41.77563477 10.40405273 38.77563477 12.40405273 C36.8026123 12.66474915 36.8026123 12.66474915 34.53540039 12.67871094 C33.25892639 12.69300896 33.25892639 12.69300896 31.95666504 12.70759583 C31.04098755 12.70668442 30.12531006 12.70577301 29.18188477 12.70483398 C28.2388147 12.70911911 27.29574463 12.71340424 26.32409668 12.71781921 C24.33024905 12.72356205 22.33638048 12.72406312 20.3425293 12.71972656 C17.28731699 12.71656482 14.23307119 12.7400325 11.17797852 12.76538086 C9.24178182 12.76765363 7.30558252 12.76835745 5.36938477 12.76733398 C3.99586853 12.78114861 3.99586853 12.78114861 2.59460449 12.79524231 C1.74362183 12.78901352 0.89263916 12.78278473 0.01586914 12.77636719 C-1.10640076 12.77731133 -1.10640076 12.77731133 -2.25134277 12.77827454 C-4.79345917 12.29611308 -5.67798121 11.44910398 -7.22436523 9.40405273 C-7.86815197 4.25375887 -7.86815197 4.25375887 -5.96495056 1.74180603 C-3.81345315 0.08824001 -2.69246537 0.01952235 0 0 Z " fill="#C5C9D2" transform="translate(315.224365234375,339.595947265625)"/>
<path d="M0 0 C0.85098267 -0.00622879 1.70196533 -0.01245758 2.57873535 -0.01887512 C3.49441284 -0.00966537 4.41009033 -0.00045563 5.35351562 0.0090332 C6.76812073 0.00828545 6.76812073 0.00828545 8.21130371 0.00752258 C10.20518094 0.00986306 12.19906112 0.01959 14.19287109 0.03613281 C17.24798959 0.05972352 20.30223546 0.05669375 23.35742188 0.05004883 C25.293625 0.05562563 27.22982445 0.06273553 29.16601562 0.0715332 C30.08169312 0.0706218 30.99737061 0.06971039 31.9407959 0.06877136 C33.2172699 0.08306938 33.2172699 0.08306938 34.51953125 0.09765625 C35.26771118 0.10226364 36.01589111 0.10687103 36.78674316 0.11161804 C38.75976562 0.37231445 38.75976562 0.37231445 41.75976562 2.37231445 C42.42539971 8.47396025 42.42539971 8.47396025 40.50134277 11.07070923 C38.34298188 12.68380677 37.19548131 12.75196146 34.51953125 12.76049805 C33.66854858 12.76995453 32.81756592 12.77941101 31.9407959 12.78915405 C31.02511841 12.78308136 30.10944092 12.77700867 29.16601562 12.77075195 C28.22294556 12.77362213 27.27987549 12.77649231 26.30822754 12.77944946 C24.31436564 12.78149092 22.32048375 12.77595538 20.32666016 12.76342773 C17.27135518 12.74737534 14.21737311 12.76327378 11.16210938 12.7824707 C9.22590853 12.78048829 7.28970852 12.77664464 5.35351562 12.77075195 C3.97999939 12.77986099 3.97999939 12.77986099 2.57873535 12.78915405 C1.72775269 12.77969757 0.87677002 12.77024109 0 12.76049805 C-1.1222699 12.75691788 -1.1222699 12.75691788 -2.26721191 12.75326538 C-4.80568216 12.26313787 -5.69426548 11.41559825 -7.24023438 9.37231445 C-7.88384042 4.22346612 -7.88384042 4.22346612 -5.98181152 1.70808411 C-3.82025222 0.05019297 -2.70278561 -0.00227379 0 0 Z " fill="#C4C8D1" transform="translate(315.240234375,295.627685546875)"/>
<path d="M0 0 C0.85098267 -0.00945648 1.70196533 -0.01891296 2.57873535 -0.02865601 C3.49441284 -0.02258331 4.41009033 -0.01651062 5.35351562 -0.01025391 C6.29658569 -0.01312408 7.23965576 -0.01599426 8.21130371 -0.01895142 C10.20516561 -0.02099287 12.1990475 -0.01545734 14.19287109 -0.00292969 C17.24817607 0.0131227 20.30215814 -0.00277574 23.35742188 -0.02197266 C25.29362272 -0.01999024 27.22982273 -0.0161466 29.16601562 -0.01025391 C30.53953186 -0.01936295 30.53953186 -0.01936295 31.9407959 -0.02865601 C32.79177856 -0.01919952 33.64276123 -0.00974304 34.51953125 0 C35.64180115 0.00358017 35.64180115 0.00358017 36.78674316 0.00723267 C39.32521341 0.49736018 40.21379673 1.34489979 41.75976562 3.38818359 C42.40342608 8.53746726 42.40342608 8.53746726 40.50134277 11.05142212 C38.34256658 12.70840806 37.2198394 12.76775289 34.51953125 12.77636719 C33.66854858 12.78582367 32.81756592 12.79528015 31.9407959 12.80502319 C31.02511841 12.7989505 30.10944092 12.79287781 29.16601562 12.78662109 C28.22294556 12.78949127 27.27987549 12.79236145 26.30822754 12.7953186 C24.31436564 12.79736006 22.32048375 12.79182452 20.32666016 12.77929688 C17.27135518 12.76324448 14.21737311 12.77914292 11.16210938 12.79833984 C9.22590853 12.79635743 7.28970852 12.79251378 5.35351562 12.78662109 C3.97999939 12.79573013 3.97999939 12.79573013 2.57873535 12.80502319 C1.72775269 12.79556671 0.87677002 12.78611023 0 12.77636719 C-1.1222699 12.77278702 -1.1222699 12.77278702 -2.26721191 12.76913452 C-4.80568216 12.27900701 -5.69426548 11.4314674 -7.24023438 9.38818359 C-7.88389483 4.23889993 -7.88389483 4.23889993 -5.98181152 1.72494507 C-3.82303533 0.06795913 -2.70030815 0.00861429 0 0 Z " fill="#CACDD4" transform="translate(315.240234375,206.61181640625)"/>
<path d="M0 0 C3.92670595 2.11438013 6.63262715 4.23125126 9 8 C9.80503292 12.06541625 9.95254041 16.23956421 7.9453125 19.94921875 C5.46577941 22.9789441 3.49643958 24.78482568 -0.390625 25.34375 C-7.8454623 25.75111816 -7.8454623 25.75111816 -11.0234375 23.68359375 C-14.55589912 19.83234901 -16 16.30826176 -16 11 C-15.12423421 6.51170034 -12.39184711 3.955565 -8.9296875 1.17578125 C-5.77575789 -0.74594509 -3.57593118 -0.6501693 0 0 Z " fill="#20223E" transform="translate(185,104)"/>
<path d="M0 0 C15.70733294 -0.07006891 31.41462371 -0.12297774 47.12207413 -0.15543652 C54.4152575 -0.17090802 61.70834378 -0.19200286 69.00146484 -0.22631836 C75.35786337 -0.25621216 81.71419158 -0.27557295 88.07065845 -0.28226548 C91.43665186 -0.28617782 94.80244413 -0.29537794 98.16837311 -0.31719017 C101.92519684 -0.33888885 105.6816005 -0.34197002 109.43847656 -0.34057617 C111.11406395 -0.35675491 111.11406395 -0.35675491 112.82350159 -0.3732605 C113.84711288 -0.36913651 114.87072418 -0.36501251 115.925354 -0.36076355 C116.81396244 -0.36352893 117.70257088 -0.36629431 118.61810684 -0.36914349 C121.52743704 0.08174168 122.9013307 0.95683054 125 3 C125.4375 6 125.4375 6 125 9 C123.43216883 11.08379377 122.54480415 11.89725562 119.95979786 12.38476086 C118.78036374 12.3916743 118.78036374 12.3916743 117.57710266 12.39872742 C116.67266418 12.41126556 115.76822571 12.42380371 114.83638 12.4367218 C113.84663681 12.43528671 112.85689362 12.43385162 111.8371582 12.43237305 C110.27105301 12.44766052 110.27105301 12.44766052 108.67330933 12.46325684 C105.21574616 12.4934969 101.75845953 12.50266975 98.30078125 12.51171875 C95.90609305 12.52855724 93.51141373 12.54670634 91.116745 12.56611633 C84.80881526 12.61371241 78.50092154 12.64345971 72.19287109 12.66955566 C65.75806566 12.69931269 59.32338442 12.74585966 52.88867188 12.79101562 C40.259182 12.87715808 27.62966202 12.94502465 15 13 C15.33 12.01 15.66 11.02 16 10 C50.98 10 85.96 10 122 10 C122 7.36 122 4.72 122 2 C82.07 2 42.14 2 1 2 C0.67 1.34 0.34 0.68 0 0 Z " fill="#4989DB" transform="translate(170,406)"/>
<path d="M0 0 C5 0 5 0 6.4855957 1.37695312 C6.87835693 2.00537109 7.27111816 2.63378906 7.67578125 3.28125 C8.11083984 3.95800781 8.54589844 4.63476562 8.99414062 5.33203125 C9.42919922 6.04746094 9.86425781 6.76289062 10.3125 7.5 C10.76689453 8.21542969 11.22128906 8.93085937 11.68945312 9.66796875 C12.80881194 11.43537741 13.90652207 13.21646319 15 15 C15.33 10.05 15.66 5.1 16 0 C17.65 0 19.3 0 21 0 C21 8.25 21 16.5 21 25 C16 25 16 25 14.5144043 23.71484375 C14.12164307 23.12832031 13.72888184 22.54179688 13.32421875 21.9375 C12.88916016 21.30585937 12.45410156 20.67421875 12.00585938 20.0234375 C11.57080078 19.35570313 11.13574219 18.68796875 10.6875 18 C10.23310547 17.33226563 9.77871094 16.66453125 9.31054688 15.9765625 C8.1918275 14.32792342 7.09386962 12.66523065 6 11 C5.67 15.62 5.34 20.24 5 25 C3.35 25 1.7 25 0 25 C0 16.75 0 8.5 0 0 Z " fill="#2E2F4D" transform="translate(116,104)"/>
<path d="M0 0 C9.6304206 8.17126596 15.19362083 21.69182819 17 34 C17.02710866 35.5563453 17.03385361 37.11312209 17.02490234 38.66967773 C17.02130707 39.48049301 17.01771179 40.29130829 17.01400757 41.12669373 C17.00938507 41.7448848 17.00476257 42.36307587 17 43 C-6.44399266 43.09349841 -29.88795732 43.16400626 -53.33209896 43.20724869 C-64.21796341 43.2278618 -75.10371192 43.25595858 -85.98950195 43.30175781 C-95.47908166 43.34166376 -104.96857738 43.3674419 -114.45823866 43.37635398 C-119.48158737 43.38156234 -124.50469584 43.39377796 -129.52796745 43.42292023 C-134.25985731 43.45014863 -138.99140884 43.45842999 -143.7233696 43.45243073 C-145.45633218 43.45352764 -147.18930652 43.46143721 -148.92220116 43.4768219 C-157.74968168 43.55132271 -165.13538801 43.56369372 -173 39 C-171.02 38.505 -171.02 38.505 -169 38 C-169 38.66 -169 39.32 -169 40 C-166.69 40 -164.38 40 -162 40 C-162 40.66 -162 41.32 -162 42 C-161.25643753 41.98747192 -160.51287506 41.97494385 -159.7467804 41.96203613 C-123.21590345 41.35244232 -86.68803329 40.89227717 -50.151577 40.87661743 C-47.72137783 40.87502224 -45.29118863 40.87148258 -42.86099243 40.86743164 C-23.21533525 40.83826274 -3.62962513 41.12025178 16 42 C15.78960083 41.31537689 15.57920166 40.63075378 15.36242676 39.92538452 C14.95196106 38.57665756 14.95196106 38.57665756 14.53320312 37.20068359 C14.12479187 35.86437393 14.12479187 35.86437393 13.70812988 34.50106812 C13 32 13 32 12.46875 28.7890625 C11.90351269 25.42590048 10.77309438 22.53553081 9.5 19.375 C6.76000977 12.54095459 6.76000977 12.54095459 6 9 C5.34 9 4.68 9 4 9 C0 2.25 0 2.25 0 0 Z " fill="#1A39AE" transform="translate(208,440)"/>
<path d="M0 0 C11.48319422 -0.09277224 22.96629894 -0.16380185 34.44979191 -0.20724869 C39.78233664 -0.2281034 45.11462455 -0.25638267 50.44702148 -0.30175781 C55.59526016 -0.34529062 60.74325213 -0.36915302 65.89166069 -0.37950897 C67.85363077 -0.38688697 69.8155877 -0.40129454 71.77745247 -0.42292023 C74.53039617 -0.45205297 77.28232679 -0.45595188 80.03540039 -0.45410156 C81.24597359 -0.47567322 81.24597359 -0.47567322 82.48100281 -0.49768066 C88.0968555 -0.45696825 91.33166755 0.86902333 96 4 C95.34 4.66 94.68 5.32 94 6 C93.1906601 5.51202438 92.38132019 5.02404877 91.54745483 4.52128601 C87.21600752 2.66379367 83.88864088 2.59686042 79.24072266 2.65942383 C78.38153229 2.65898575 77.52234192 2.65854767 76.63711548 2.65809631 C73.81252896 2.6601773 70.98854464 2.68347563 68.1640625 2.70703125 C66.19965947 2.71262966 64.23525223 2.7168986 62.27084351 2.71989441 C57.11196232 2.73132386 51.95333634 2.76077475 46.79455566 2.79400635 C41.52583264 2.82474817 36.2570682 2.83840854 30.98828125 2.85351562 C20.65874232 2.88564621 10.32939242 2.93681964 0 3 C0 2.01 0 1.02 0 0 Z " fill="#D5DEF5" transform="translate(305,130)"/>
<path d="M0 0 C3.74973906 -0.11622939 7.49901464 -0.1872595 11.25 -0.25 C12.31347656 -0.28351563 13.37695312 -0.31703125 14.47265625 -0.3515625 C15.49746094 -0.36445313 16.52226562 -0.37734375 17.578125 -0.390625 C18.99206543 -0.4220459 18.99206543 -0.4220459 20.43457031 -0.45410156 C23.77884021 0.13786094 24.96292328 1.33151353 27 4 C26.9375 7.125 26.9375 7.125 26 10 C22.88692064 12.07538624 22.23651805 12.24772151 18.7121582 12.22705078 C17.42115959 12.22682419 17.42115959 12.22682419 16.1040802 12.22659302 C15.17899155 12.21627045 14.25390289 12.20594788 13.30078125 12.1953125 C12.35059616 12.1924826 11.40041107 12.18965271 10.4214325 12.18673706 C7.38499385 12.17553715 4.34884958 12.15043288 1.3125 12.125 C-0.74543845 12.11496996 -2.80338152 12.10584415 -4.86132812 12.09765625 C-9.9076656 12.07559842 -14.95378288 12.04106982 -20 12 C-20 11.67 -20 11.34 -20 11 C-11.42 11 -2.84 11 6 11 C7.03453058 6.23118866 7.03453058 6.23118866 6 2 C3.03 1.505 3.03 1.505 0 1 C0 0.67 0 0.34 0 0 Z " fill="#CFD2D9" transform="translate(331,340)"/>
<path d="M0 0 C5.61 0 11.22 0 17 0 C17 1.32 17 2.64 17 4 C13.04 4 9.08 4 5 4 C5 5.98 5 7.96 5 10 C8.3 10 11.6 10 15 10 C15 11.32 15 12.64 15 14 C11.7 14 8.4 14 5 14 C5 15.98 5 17.96 5 20 C8.96 20 12.92 20 17 20 C17 21.32 17 22.64 17 24 C11.39 24 5.78 24 0 24 C0 16.08 0 8.16 0 0 Z " fill="#1D1E3D" transform="translate(240,105)"/>
<path d="M0 0 C2.77109307 -0.05392397 5.54113818 -0.09363455 8.3125 -0.125 C9.09818359 -0.14175781 9.88386719 -0.15851563 10.69335938 -0.17578125 C11.45068359 -0.18222656 12.20800781 -0.18867188 12.98828125 -0.1953125 C13.68477783 -0.20578613 14.38127441 -0.21625977 15.09887695 -0.22705078 C17 0 17 0 20 2 C20.6652818 8.0984165 20.6652818 8.0984165 18.74455261 10.70137024 C16.56427467 12.32435014 15.41124268 12.36432178 12.7121582 12.34057617 C11.85149246 12.34034958 10.99082672 12.34012299 10.1040802 12.33988953 C8.71644722 12.31666374 8.71644722 12.31666374 7.30078125 12.29296875 C6.35059616 12.28872391 5.40041107 12.28447906 4.4214325 12.28010559 C1.38483412 12.26330484 -1.65110202 12.22564992 -4.6875 12.1875 C-6.74543313 12.17245497 -8.80337665 12.15876625 -10.86132812 12.14648438 C-15.90780748 12.11339671 -20.95379144 12.06160462 -26 12 C-26 11.67 -26 11.34 -26 11 C-17.42 11 -8.84 11 0 11 C0 7.37 0 3.74 0 0 Z " fill="#D0D3D9" transform="translate(337,296)"/>
<path d="M0 0 C3.0625 2 3.0625 2 5 4 C4.67 4.99 4.34 5.98 4 7 C3.319375 6.835 2.63875 6.67 1.9375 6.5 C-4.16274843 5.40642339 -4.16274843 5.40642339 -9.9375 7.0625 C-11.61903731 10.12883274 -11.36051184 12.57513751 -11 16 C-10.11670357 18.53958234 -10.11670357 18.53958234 -8 20 C-4.45786015 20.50007794 -4.45786015 20.50007794 -1 20 C-0.34 19.34 0.32 18.68 1 18 C3.125 18.375 3.125 18.375 5 19 C4.6875 20.875 4.6875 20.875 4 23 C-0.45093283 25.96728856 -4.78187992 25.75636001 -10 25 C-13.31876697 22.56172222 -15.72257934 19.94839113 -17 16 C-17.47357835 11.73779488 -17.29830613 9.5539971 -15.25 5.75 C-10.71071987 0.20199095 -7.16410404 -1.21101403 0 0 Z " fill="#2B2D4A" transform="translate(228,104)"/>
<path d="M0 0 C1.65 0 3.3 0 5 0 C6.98 5.28 8.96 10.56 11 16 C11.78375 14.1025 12.5675 12.205 13.375 10.25 C14.81239108 6.77000055 16.26400675 3.3421926 18 0 C19.65 0 21.3 0 23 0 C21.87942681 3.25154331 20.75277056 6.50094672 19.625 9.75 C19.30789062 10.67039062 18.99078125 11.59078125 18.6640625 12.5390625 C18.2 13.87324219 18.2 13.87324219 17.7265625 15.234375 C17.30238037 16.45979004 17.30238037 16.45979004 16.86962891 17.70996094 C16.04060935 19.89306129 15.08327115 21.93306884 14 24 C12.02 24 10.04 24 8 24 C6.84798903 20.93978855 5.70450097 17.87645956 4.5625 14.8125 C4.23701172 13.94818359 3.91152344 13.08386719 3.57617188 12.19335938 C3.26357422 11.35224609 2.95097656 10.51113281 2.62890625 9.64453125 C2.34088135 8.87471924 2.05285645 8.10490723 1.75610352 7.31176758 C0.96498745 4.89294999 0.45097555 2.50262397 0 0 Z " fill="#2C2D49" transform="translate(143,105)"/>
<path d="M0 0 C3.5625 0.625 3.5625 0.625 6.5625 2.6875 C8.5625 5.625 8.5625 5.625 8.625 9.1875 C7.47729011 12.90067907 6.77157572 14.4567056 3.5625 16.625 C0.625 17.1875 0.625 17.1875 -2.4375 16.625 C-5.76628632 14.16459272 -7.23051948 12.72889613 -8 8.625 C-7.02442766 3.42194751 -5.30436776 0.9644305 0 0 Z " fill="#ECECF0" transform="translate(181.4375,108.375)"/>
<path d="M0 0 C5 0 5 0 6.58203125 1.53125 C6.98808594 2.1809375 7.39414063 2.830625 7.8125 3.5 C8.23144531 4.1496875 8.65039062 4.799375 9.08203125 5.46875 C9.38496094 5.9740625 9.68789062 6.479375 10 7 C9 9 9 9 6 11 C5.41312216 14.34613512 5.41312216 14.34613512 5.3125 18.125 C5.24675781 19.40632813 5.18101563 20.68765625 5.11328125 22.0078125 C5.07589844 22.99523437 5.03851563 23.98265625 5 25 C3.35 25 1.7 25 0 25 C0 16.75 0 8.5 0 0 Z " fill="#31334E" transform="translate(116,104)"/>
<path d="M0 0 C1.32 0 2.64 0 4 0 C4 0.66 4 1.32 4 2 C6.31 2 8.62 2 11 2 C11 2.66 11 3.32 11 4 C11.86569611 3.98747192 12.73139221 3.97494385 13.62332153 3.96203613 C21.88692128 3.84273157 30.15054145 3.72497592 38.41418648 3.60884857 C42.65992559 3.54913241 46.90565532 3.48887121 51.15136719 3.42724609 C83.63782577 2.95651044 83.63782577 2.95651044 96.875 2.9375 C97.7129007 2.93520386 98.55080139 2.93290771 99.41409302 2.93054199 C105.97622337 2.93911512 112.47124741 3.31016954 119 4 C119 4.33 119 4.66 119 5 C104.81328344 5.09364037 90.62661513 5.163809 76.43965244 5.20724869 C69.85166752 5.22810029 63.26389061 5.25637431 56.67602539 5.30175781 C50.31530151 5.34530105 43.95477739 5.36915537 37.59391594 5.37950897 C35.17028599 5.38688503 32.74666666 5.40128872 30.32312202 5.42292023 C26.92163816 5.45206588 23.52097393 5.4559512 20.11938477 5.45410156 C19.12316101 5.46848267 18.12693726 5.48286377 17.1005249 5.49768066 C10.5583883 5.45932705 5.74852977 4.12972765 0 1 C0 0.67 0 0.34 0 0 Z " fill="#1244CC" transform="translate(35,478)"/>
<path d="M0 0 C1.65 0 3.3 0 5 0 C5 8.58 5 17.16 5 26 C3.35 26 1.7 26 0 26 C0 17.42 0 8.84 0 0 Z " fill="#363751" transform="translate(200,104)"/>
<path d="M0 0 C1.65 0 3.3 0 5 0 C3.87942681 3.25154331 2.75277056 6.50094672 1.625 9.75 C1.30789062 10.67039062 0.99078125 11.59078125 0.6640625 12.5390625 C0.3546875 13.42851563 0.0453125 14.31796875 -0.2734375 15.234375 C-0.55622559 16.05131836 -0.83901367 16.86826172 -1.13037109 17.70996094 C-1.95939065 19.89306129 -2.91672885 21.93306884 -4 24 C-5.65 24 -7.3 24 -9 24 C-9 23.34 -9 22.68 -9 22 C-7.68 22 -6.36 22 -5 22 C-4.97421875 21.16597656 -4.9484375 20.33195312 -4.921875 19.47265625 C-4.55314542 12.15672623 -3.5712507 6.42825125 0 0 Z " fill="#2C2E4E" transform="translate(161,105)"/>
<path d="M0 0 C1.32 0 2.64 0 4 0 C4 7.92 4 15.84 4 24 C2.68 24 1.36 24 0 24 C0 16.08 0 8.16 0 0 Z " fill="#181A37" transform="translate(105,105)"/>
<path d="M0 0 C0.33 0 0.66 0 1 0 C1.00586624 0.58580338 1.01173248 1.17160675 1.01777649 1.77516174 C1.08188396 7.89151769 1.16634801 14.0073559 1.26245117 20.12329102 C1.29563367 22.40349486 1.32368624 24.68377953 1.34643555 26.96411133 C1.38010382 30.24855882 1.43242726 33.53227014 1.48828125 36.81640625 C1.49467117 37.83021866 1.5010611 38.84403107 1.50764465 39.88856506 C1.62825934 45.74112357 2.42366727 49.75521555 5 55 C5 55.99 5 56.98 5 58 C6.32 58.66 7.64 59.32 9 60 C9 60.66 9 61.32 9 62 C9.66 62 10.32 62 11 62 C11 62.66 11 63.32 11 64 C6.23260985 62.23429995 3.44202301 58.37563078 0.86575317 54.13140869 C-0.18577917 51.5426279 -0.24060487 49.5646042 -0.22705078 46.77246094 C-0.22689972 45.73168396 -0.22674866 44.69090698 -0.22659302 43.61859131 C-0.21627045 42.50179993 -0.20594788 41.38500854 -0.1953125 40.234375 C-0.1924826 39.08584045 -0.18965271 37.93730591 -0.18673706 36.75396729 C-0.17554263 33.08587219 -0.15043904 29.4180213 -0.125 25.75 C-0.11496926 23.26302436 -0.10584358 20.77604489 -0.09765625 18.2890625 C-0.07560568 12.19262502 -0.04213525 6.09632996 0 0 Z " fill="#0527A2" transform="translate(285,62)"/>
<path d="M0 0 C0.99 0 1.98 0 3 0 C3 1.98 3 3.96 3 6 C6.96 6 10.92 6 15 6 C15 7.32 15 8.64 15 10 C9.39 10 3.78 10 -2 10 C-2 2 -2 2 0 0 Z " fill="#242846" transform="translate(242,119)"/>
<path d="M0 0 C1.91195412 0.00848969 1.91195412 0.00848969 3.86253357 0.01715088 C7.22155797 0.03564718 10.57945713 0.07146591 13.93817139 0.1159668 C17.37730278 0.15717477 20.81655129 0.17521584 24.25585938 0.1953125 C30.98207691 0.23925933 37.7077705 0.30608193 44.43359375 0.390625 C44.43359375 0.720625 44.43359375 1.050625 44.43359375 1.390625 C43.75200699 1.39427063 43.07042023 1.39791626 42.36817932 1.40167236 C35.24584393 1.44362579 28.12414523 1.51306183 21.00219727 1.59814453 C18.34744564 1.628473 15.6932962 1.64753639 13.03833008 1.66162109 C9.21262371 1.68313397 5.38790734 1.729831 1.5625 1.78125 C-0.20522011 1.78309296 -0.20522011 1.78309296 -2.00865173 1.78497314 C-8.36702976 1.89687004 -13.2018303 2.55148292 -18.86390686 5.53704834 C-20.56640625 6.390625 -20.56640625 6.390625 -22.56640625 6.390625 C-22.56640625 5.730625 -22.56640625 5.070625 -22.56640625 4.390625 C-15.10874233 0.08507832 -8.47025813 -0.14307456 0 0 Z " fill="#1A90E4" transform="translate(90.56640625,35.609375)"/>
<path d="M0 0 C5.28 0 10.56 0 16 0 C16 0.99 16 1.98 16 3 C14.22950311 3.05410687 12.45853151 3.09284119 10.6875 3.125 C9.20830078 3.15980469 9.20830078 3.15980469 7.69921875 3.1953125 C5 3 5 3 2 1 C2 7.6 2 14.2 2 21 C1.67 21 1.34 21 1 21 C-0.11169496 16.56197365 -0.114854 12.22932573 -0.0625 7.6875 C-0.041875 5.150625 -0.02125 2.61375 0 0 Z " fill="#181938" transform="translate(240,105)"/>
<path d="M0 0 C0.66 0 1.32 0 2 0 C2 6.6 2 13.2 2 20 C-7.24 20 -16.48 20 -26 20 C-26 19.67 -26 19.34 -26 19 C-17.3052156 18.279722 -8.72495012 17.89359817 0 18 C0 12.06 0 6.12 0 0 Z " fill="#0A49BB" transform="translate(282,17)"/>
<path d="M0 0 C4.52401034 2.93095182 8.77904729 6.08746439 13 9.4375 C13.59039062 9.90220703 14.18078125 10.36691406 14.7890625 10.84570312 C18.57777101 13.83744762 22.30347315 16.89514284 26 20 C25.34 20.66 24.68 21.32 24 22 C21.53825477 20.03936101 19.07941774 18.07527844 16.625 16.10546875 C15.08819367 14.87282201 13.54805558 13.64427031 12 12.42578125 C10.62950739 11.32872827 9.30827006 10.17055742 8 9 C8 8.34 8 7.68 8 7 C7.4225 6.896875 6.845 6.79375 6.25 6.6875 C3.61872985 5.88350079 2.01311907 4.86932485 0 3 C0 2.01 0 1.02 0 0 Z " fill="#2491E8" transform="translate(58,319)"/>
<path d="M0 0 C1.65 0 3.3 0 5 0 C6.46972992 2.93945984 6 5.74955436 6 9 C6.33 9.66 6.66 10.32 7 11 C7.039992 12.99960012 7.04346799 15.00047242 7 17 C2.84327315 12.21976413 0 6.31852692 0 0 Z " fill="#272948" transform="translate(143,105)"/>
<path d="M0 0 C3.19320258 1.03431996 3.9929004 1.98770597 5.703125 4.94921875 C6.2407582 6.18597633 6.75526714 7.43296496 7.25 8.6875 C7.64566162 9.67278687 7.64566162 9.67278687 8.04931641 10.67797852 C10.66804545 17.80711709 10.57558481 24.48542058 10 32 C9.67 32 9.34 32 9 32 C8.91363281 31.15179688 8.82726562 30.30359375 8.73828125 29.4296875 C7.48727422 18.98550041 4.94323882 9.38299961 0 0 Z " fill="#D7DFFA" transform="translate(216,451)"/>
<path d="M0 0 C3.49873271 1.39655297 4.70891831 2.71260484 6.25 6.125 C6.58515625 6.84945312 6.9203125 7.57390625 7.265625 8.3203125 C7.62914062 9.15175781 7.62914062 9.15175781 8 10 C7.34 10 6.68 10 6 10 C6.66 11.65 7.32 13.3 8 15 C4.41871228 11.61767271 1.39395697 8.32753759 -1 4 C-0.75 1.625 -0.75 1.625 0 0 Z " fill="#1E213B" transform="translate(124,112)"/>
<path d="M0 0 C2.125 0.375 2.125 0.375 4 1 C3.6875 2.875 3.6875 2.875 3 5 C0 7 0 7 -4 7 C-4 6.34 -4 5.68 -4 5 C-5.4540625 4.814375 -5.4540625 4.814375 -6.9375 4.625 C-7.948125 4.41875 -8.95875 4.2125 -10 4 C-10.33 3.34 -10.66 2.68 -11 2 C-10.06027344 2.03480469 -10.06027344 2.03480469 -9.1015625 2.0703125 C-7.87566406 2.09738281 -7.87566406 2.09738281 -6.625 2.125 C-5.40683594 2.15980469 -5.40683594 2.15980469 -4.1640625 2.1953125 C-1.78657757 2.21370051 -1.78657757 2.21370051 0 0 Z " fill="#212341" transform="translate(229,122)"/>
<path d="M0 0 C2.475 0.495 2.475 0.495 5 1 C5 1.66 5 2.32 5 3 C5.5775 3.103125 6.155 3.20625 6.75 3.3125 C9.35661158 4.10896465 10.9735311 5.19065277 13 7 C13 7.66 13 8.32 13 9 C15.475 9.99 15.475 9.99 18 11 C18 11.66 18 12.32 18 13 C18.66 13.33 19.32 13.66 20 14 C15.88214922 14 14.37220968 12.29446949 11.125 9.8125 C10.09632812 9.03519531 9.06765625 8.25789063 8.0078125 7.45703125 C5.1221406 5.09977459 2.57906464 2.6789915 0 0 Z " fill="#CCECFC" transform="translate(77,333)"/>
<path d="M0 0 C2.4375 1.5 2.4375 1.5 4 3 C2.35 3.33 0.7 3.66 -1 4 C-1 4.33 -1 4.66 -1 5 C-4.33333333 5 -7.66666667 5 -11 5 C-8.50445891 -0.52584099 -5.93878191 -0.40957117 0 0 Z " fill="#363751" transform="translate(185,104)"/>
<path d="M0 0 C0.66 0.33 1.32 0.66 2 1 C1.09636719 1.83144531 0.19273438 2.66289062 -0.73828125 3.51953125 C-1.92971816 4.61715423 -3.12112271 5.71481232 -4.3125 6.8125 C-5.20485352 7.63331055 -5.20485352 7.63331055 -6.11523438 8.47070312 C-6.69208984 9.00244141 -7.26894531 9.53417969 -7.86328125 10.08203125 C-8.65665894 10.81256714 -8.65665894 10.81256714 -9.46606445 11.55786133 C-11.0092835 13.00872793 -12.51015856 14.49453768 -14 16 C-14.66 15.67 -15.32 15.34 -16 15 C-11.72519764 8.30976054 -6.67612426 4.22205487 0 0 Z " fill="#42A3EC" transform="translate(23,10)"/>
<path d="M0 0 C0.99 0.33 1.98 0.66 3 1 C2.53199289 5.05606165 2.12046792 8.46588679 0 12 C-1.65 12 -3.3 12 -5 12 C-5 11.34 -5 10.68 -5 10 C-3.68 10 -2.36 10 -1 10 C-0.67 6.7 -0.34 3.4 0 0 Z " fill="#1B1D38" transform="translate(157,117)"/>
<path d="M0 0 C1.6026782 -0.10824843 3.20745748 -0.18570645 4.8125 -0.25 C5.70582031 -0.29640625 6.59914062 -0.3428125 7.51953125 -0.390625 C10 0 10 0 11.82421875 2.015625 C12.40623047 2.99789062 12.40623047 2.99789062 13 4 C12.67 4.66 12.34 5.32 12 6 C8 6 8 6 6 4.125 C5.34 3.42375 4.68 2.7225 4 2 C2.68453204 1.29873951 1.35301051 0.62576736 0 0 Z " fill="#242646" transform="translate(180,107)"/>
<path d="M0 0 C0.66 0.66 1.32 1.32 2 2 C-1.8308299 5.41131539 -5.52904891 8.4451708 -10 11 C-10.66 11.66 -11.32 12.32 -12 13 C-12 11.02 -12 9.04 -12 7 C-11.07767578 6.74476563 -11.07767578 6.74476563 -10.13671875 6.484375 C-5.02672252 5.0327103 -5.02672252 5.0327103 -0.9375 1.8125 C-0.628125 1.214375 -0.31875 0.61625 0 0 Z " fill="#D9ECFE" transform="translate(349,425)"/>
<path d="M0 0 C8.91 0 17.82 0 27 0 C27 0.33 27 0.66 27 1 C19.74 1 12.48 1 5 1 C4.67 1.99 4.34 2.98 4 4 C2.68 2.68 1.36 1.36 0 0 Z " fill="#E6F3FE" transform="translate(187,419)"/>
<path d="M0 0 C0.33 0.99 0.66 1.98 1 3 C-0.62339805 4.70884005 -2.29319053 6.37446717 -4 8 C-4.66 8 -5.32 8 -6 8 C-6 11.3 -6 14.6 -6 18 C-6.33 18 -6.66 18 -7 18 C-7.86101859 7.24683455 -7.86101859 7.24683455 -4.625 3.375 C-2 1 -2 1 0 0 Z " fill="#4C85EC" transform="translate(322,383)"/>
<path d="M0 0 C0.66 0 1.32 0 2 0 C3.17673198 2.35346396 3.16623866 3.8806033 3.1875 6.5 C3.20167969 7.2940625 3.21585938 8.088125 3.23046875 8.90625 C3 11 3 11 1 13 C0.63631108 11.39796533 0.28438048 9.79325797 -0.0625 8.1875 C-0.25972656 7.29417969 -0.45695313 6.40085937 -0.66015625 5.48046875 C-1 3 -1 3 0 0 Z " fill="#1F2342" transform="translate(213,110)"/>
<path d="M0 0 C8.03501094 -0.63019694 8.03501094 -0.63019694 12.0625 2 C12.701875 2.66 13.34125 3.32 14 4 C13.67 4.99 13.34 5.98 13 7 C11.35 6.67 9.7 6.34 8 6 C8 4.35 8 2.7 8 1 C5.36 1 2.72 1 0 1 C0 0.67 0 0.34 0 0 Z " fill="#474862" transform="translate(219,104)"/>
<path d="M0 0 C2.5625 2.25 2.5625 2.25 5 5 C4.8125 7.3125 4.8125 7.3125 4 9 C0.63279613 7.60667426 -0.9859524 6.0210714 -3 3 C-2.01 2.01 -1.02 1.02 0 0 Z " fill="#292A49" transform="translate(174,120)"/>
<path d="M0 0 C0.66 0 1.32 0 2 0 C2 0.66 2 1.32 2 2 C2.66 2.33 3.32 2.66 4 3 C4.12375 3.804375 4.2475 4.60875 4.375 5.4375 C4.72567164 8.15983399 4.72567164 8.15983399 7.0625 9.3125 C7.701875 9.539375 8.34125 9.76625 9 10 C9 10.66 9 11.32 9 12 C9.66 12 10.32 12 11 12 C11 12.66 11 13.32 11 14 C6.89789238 12.48070088 4.36869943 9.5656041 2 6 C0.6875 2.625 0.6875 2.625 0 0 Z " fill="#1B359C" transform="translate(285,112)"/>
<path d="M0 0 C0.99 0 1.98 0 3 0 C3 1.98 3 3.96 3 6 C6.96 6 10.92 6 15 6 C14.67 7.32 14.34 8.64 14 10 C14 9.01 14 8.02 14 7 C9.38 7.33 4.76 7.66 0 8 C0 5.36 0 2.72 0 0 Z " fill="#424460" transform="translate(242,119)"/>
<path d="M0 0 C5.40489519 1.52012677 8.98492628 5.27385218 13 9 C12.01 9.33 11.02 9.66 10 10 C7.51953125 8.41796875 7.51953125 8.41796875 4.8125 6.1875 C3.91144531 5.45917969 3.01039062 4.73085938 2.08203125 3.98046875 C1.39496094 3.32691406 0.70789063 2.67335938 0 2 C0 1.34 0 0.68 0 0 Z " fill="#1F84E4" transform="translate(84,340)"/>
<path d="M0 0 C0.99 0.33 1.98 0.66 3 1 C2.60167969 1.40089844 2.20335938 1.80179688 1.79296875 2.21484375 C-2.45461733 6.77247261 -4.44706823 10.99260603 -6 17 C-6.33 17 -6.66 17 -7 17 C-7.28571429 9.57142857 -7.28571429 9.57142857 -5 6 C-4.34 6 -3.68 6 -3 6 C-2.690625 5.195625 -2.38125 4.39125 -2.0625 3.5625 C-1 1 -1 1 0 0 Z " fill="#369FEA" transform="translate(65,42)"/>
<path d="M0 0 C2.375 -0.125 2.375 -0.125 5 0 C7 2 7 2 7.375 4.9375 C7 8 7 8 5 9.875 C4.01 10.431875 4.01 10.431875 3 11 C2.34 10.34 1.68 9.68 1 9 C1.99 9 2.98 9 4 9 C4 6.36 4 3.72 4 1 C2.68 0.67 1.36 0.34 0 0 Z " fill="#4381E7" transform="translate(288,407)"/>
<path d="M0 0 C2.16874252 0.50603992 3.99967627 0.99983813 6 2 C6 2.66 6 3.32 6 4 C8.475 4.99 8.475 4.99 11 6 C11 6.66 11 7.32 11 8 C11.66 8.33 12.32 8.66 13 9 C9.02348017 9 7.85083826 7.55718178 4.8125 5.0625 C3.91144531 4.33160156 3.01039062 3.60070312 2.08203125 2.84765625 C1.39496094 2.23792969 0.70789063 1.62820313 0 1 C0 0.67 0 0.34 0 0 Z " fill="#C9E3FC" transform="translate(122,368)"/>
<path d="M0 0 C2.52749915 3.79124873 4.25143184 7.67425551 3.75 12.3125 C3 14 3 14 1 16 C-0.04350564 12.60860667 0 9.52869911 0 6 C-0.33 5.01 -0.66 4.02 -1 3 C-0.67 2.01 -0.34 1.02 0 0 Z " fill="#3C3E59" transform="translate(149,110)"/>
<path d="M0 0 C3.94120709 0.56302958 6.7508723 1.6791945 10 4 C10 4.66 10 5.32 10 6 C7.13275314 5.42655063 6.1385485 5.1385485 4 3 C0.90073181 3.32198966 0.90073181 3.32198966 -2 4 C-1.34 2.68 -0.68 1.36 0 0 Z " fill="#D6ECFE" transform="translate(318,416)"/>
<path d="M0 0 C0.33 1.32 0.66 2.64 1 4 C-2.96 4 -6.92 4 -11 4 C-11 5.65 -11 7.3 -11 9 C-11.33 9 -11.66 9 -12 9 C-12 7.35 -12 5.7 -12 4 C-12.66 4 -13.32 4 -14 4 C-14 3.01 -14 2.02 -14 1 C-13.01 1.33 -12.02 1.66 -11 2 C-9.10787263 2.22179785 -7.21115528 2.40614015 -5.3125 2.5625 C-4.31863281 2.64628906 -3.32476562 2.73007813 -2.30078125 2.81640625 C-1.16189453 2.90728516 -1.16189453 2.90728516 0 3 C0 2.01 0 1.02 0 0 Z " fill="#3C3D59" transform="translate(256,105)"/>
<path d="M0 0 C3.52238047 1.56367357 6.27123994 3.69495889 9.25 6.125 C10.14203125 6.84945313 11.0340625 7.57390625 11.953125 8.3203125 C12.62859375 8.87460937 13.3040625 9.42890625 14 10 C13.01 10.495 13.01 10.495 12 11 C10.18401175 9.54601271 8.37230481 8.08667675 6.5625 6.625 C5.04849609 5.40683594 5.04849609 5.40683594 3.50390625 4.1640625 C1 2 1 2 0 0 Z " fill="#1D4DC1" transform="translate(182,417)"/>
<path d="M0 0 C2.64 0 5.28 0 8 0 C7.01 0.495 7.01 0.495 6 1 C6 1.99 6 2.98 6 4 C4.02 4 2.04 4 0 4 C0 2.66666667 0 1.33333333 0 0 Z " fill="#1B1C3B" transform="translate(178,125)"/>
<path d="M0 0 C0.33 0.66 0.66 1.32 1 2 C1.66 2 2.32 2 3 2 C2.67 4.31 2.34 6.62 2 9 C0.68 8.01 -0.64 7.02 -2 6 C-1.125 1.125 -1.125 1.125 0 0 Z " fill="#262843" transform="translate(159,111)"/>
<path d="M0 0 C1.65 1.65 3.3 3.3 5 5 C4.01 5.495 4.01 5.495 3 6 C2.34 5.67 1.68 5.34 1 5 C1 8.3 1 11.6 1 15 C0.67 15 0.34 15 0 15 C0 10.05 0 5.1 0 0 Z " fill="#CFCFDA" transform="translate(121,114)"/>
<path d="M0 0 C-1.78953185 0.83790789 -3.58169695 1.67019396 -5.375 2.5 C-6.87160156 3.19609375 -6.87160156 3.19609375 -8.3984375 3.90625 C-11 5 -11 5 -13 5 C-13 4.34 -13 3.68 -13 3 C-11.5903653 2.29819469 -10.17192359 1.61406042 -8.75 0.9375 C-7.96109375 0.55464844 -7.1721875 0.17179687 -6.359375 -0.22265625 C-3.74006478 -1.08564091 -2.55144824 -0.93045933 0 0 Z " fill="#359EEA" transform="translate(81,37)"/>
<path d="M0 0 C4.67461851 -0.32613618 7.16674383 0.29417212 11 3 C10.34 3.66 9.68 4.32 9 5 C8.071875 4.505 7.14375 4.01 6.1875 3.5 C3.13472484 1.78710148 3.13472484 1.78710148 0 2 C0 1.34 0 0.68 0 0 Z " fill="#D1DCF2" transform="translate(390,131)"/>
<path d="M0 0 C3.81684226 1.55500981 6.19195732 4.03595495 9 7 C4.68381834 7 3.07210341 4.86729652 0 2 C0 1.34 0 0.68 0 0 Z " fill="#1B8AE7" transform="translate(75,333)"/>
<path d="M0 0 C0.99 0.33 1.98 0.66 3 1 C2.67 3.31 2.34 5.62 2 8 C1.34 8 0.68 8 0 8 C0 5.36 0 2.72 0 0 Z " fill="#CFE1F9" transform="translate(351,414)"/>
<path d="M0 0 C4.75 1.875 4.75 1.875 7 3 C7 3.66 7 4.32 7 5 C8.32 5.33 9.64 5.66 11 6 C10.34 6.66 9.68 7.32 9 8 C7.49712782 6.85793642 5.99776716 5.71125043 4.5 4.5625 C3.6646875 3.92441406 2.829375 3.28632813 1.96875 2.62890625 C1.3190625 2.09136719 0.669375 1.55382812 0 1 C0 0.67 0 0.34 0 0 Z " fill="#C7ECFD" transform="translate(59,319)"/>
<path d="M0 0 C2.6855594 2.6855594 3.06049974 5.37621328 4 9 C2.68 9 1.36 9 0 9 C0 6.03 0 3.06 0 0 Z " fill="#219CFC" transform="translate(0,261)"/>
<path d="M0 0 C2 2 2 2 2.125 5.625 C2.08375 6.73875 2.0425 7.8525 2 9 C1.01 8.67 0.02 8.34 -1 8 C-0.67 5.36 -0.34 2.72 0 0 Z " fill="#2F314C" transform="translate(170,111)"/>
<path d="M0 0 C2.31 0.66 4.62 1.32 7 2 C7.33 3.32 7.66 4.64 8 6 C4.63408134 4.55746343 2.48952921 2.66735273 0 0 Z " fill="#C5E3FA" transform="translate(105,355)"/>
<path d="M0 0 C2.0625 0.4375 2.0625 0.4375 4 1 C3.6875 2.9375 3.6875 2.9375 3 5 C2.01 5.33 1.02 5.66 0 6 C0.33 4.68 0.66 3.36 1 2 C0.34 1.67 -0.32 1.34 -1 1 C-0.67 0.67 -0.34 0.34 0 0 Z " fill="#373950" transform="translate(229,122)"/>
<path d="M0 0 C1.65 0 3.3 0 5 0 C5.33 1.32 5.66 2.64 6 4 C4.02 4 2.04 4 0 4 C0 2.68 0 1.36 0 0 Z " fill="#34344D" transform="translate(143,105)"/>
<path d="M0 0 C2.78211944 0.37596209 4.5879284 0.67318459 6.8125 2.4375 C8 4 8 4 8 6 C4.63408134 4.55746343 2.48952921 2.66735273 0 0 Z " fill="#CADFFB" transform="translate(147,388)"/>
<path d="M0 0 C4 2 4 2 5.25 5.125 C5.4975 6.07375 5.745 7.0225 6 8 C5.01 8.495 5.01 8.495 4 9 C2.68 6.03 1.36 3.06 0 0 Z " fill="#D3DCF9" transform="translate(216,451)"/>
<path d="M0 0 C2.31 1.65 4.62 3.3 7 5 C6.01 5.33 5.02 5.66 4 6 C2.35 4.35 0.7 2.7 -1 1 C-0.67 0.67 -0.34 0.34 0 0 Z " fill="#267DE3" transform="translate(113,362)"/>
<path d="M0 0 C2.31 0.66 4.62 1.32 7 2 C7.33 3.32 7.66 4.64 8 6 C1.125 2.25 1.125 2.25 0 0 Z " fill="#CDEFFD" transform="translate(69,327)"/>
<path d="M0 0 C0.33 0.66 0.66 1.32 1 2 C1.99 1.67 2.98 1.34 4 1 C4.33 2.65 4.66 4.3 5 6 C3.68 5.67 2.36 5.34 1 5 C0.67 3.35 0.34 1.7 0 0 Z " fill="#1C1D3B" transform="translate(144,107)"/>
</svg>
